<?xml version="1.0" encoding="UTF-8"?>
<svg id="Layer_2" data-name="Layer 2" xmlns="http://www.w3.org/2000/svg" xmlns:xlink="http://www.w3.org/1999/xlink" viewBox="0 0 17 20">
  <defs>
    <style>
      .cls-1 {
        fill: #fff;
      }

      .cls-2 {
        fill: none;
      }

      .cls-3 {
        clip-path: url(#clippath);
      }
    </style>
    <clipPath id="clippath">
      <rect class="cls-2" width="17" height="20"/>
    </clipPath>
  </defs>
  <g id="Layer_1-2" data-name="Layer 1">
    <g class="cls-3">
      <g>
        <path class="cls-1" d="M17,17.39c-.97,1.04-1.48,1.58-2.45,2.61H2.46c-.98-1.03-1.48-1.57-2.46-2.61.08-1.02.2-2.2.4-3.29.41-2.19,1.61-4.48,4.2-4.45.52,0,1.36.73,1.85.98.66.35,1.36.53,2.05.55.7-.02,1.39-.2,2.05-.55.5-.25,1.33-.97,1.86-.98,2.59-.03,3.79,2.26,4.19,4.45.2,1.09.33,2.27.4,3.29Z"/>
        <path class="cls-1" d="M13.38,5.1c-.16,2.74-2.47,4.51-4.88,4.54-2.4-.03-4.72-1.8-4.87-4.54C3.46,2.12,5.91.03,8.5,0c2.59.03,5.05,2.12,4.88,5.1Z"/>
      </g>
    </g>
  </g>
</svg>