<svg width="90" height="100" viewBox="0 0 90 100" fill="none" xmlns="http://www.w3.org/2000/svg">
<path fill-rule="evenodd" clip-rule="evenodd" d="M4.43049 72.7838L6.80982 85.2936C6.64522 83.4332 7.04518 81.5665 7.95845 79.9324C11.9377 73.1087 26.665 64.9856 66.006 57.7559L74.2107 38.0166C13.7427 49.9983 2.70752 63.767 4.38947 72.7838H4.43049ZM11.4864 79.8107C10.6493 80.706 10.0091 81.7642 9.60659 82.9184C9.20411 84.0719 9.04798 85.2952 9.14814 86.5122C9.33047 88.237 10.0009 89.8766 11.0821 91.2417C12.1633 92.6068 13.6116 93.6425 15.2605 94.2293C20.9258 96.7998 26.9595 98.4851 33.1466 99.2246L30.9724 86.837C24.0657 85.8169 17.4381 83.427 11.4864 79.8107ZM0.246138 50.9731H0L2.87161 65.9197C2.61431 63.5098 3.04048 61.0766 4.1023 58.8932C8.81992 49.4703 27.0752 37.5291 78.8876 26.6847L89.9225 0C10.7481 18.4397 -2.05115 38.5445 0.246138 50.9731Z" fill="#0E38EC"/>
</svg>
