<svg width="19" height="20" viewBox="0 0 19 20" fill="none" xmlns="http://www.w3.org/2000/svg">
<path d="M4.17806 6.2531V3.88086H3.90605L3.26562 4.52126V5.6127L3.90605 6.2531H4.17806Z" fill="white"/>
<path d="M15.0296 5.6127V4.52126L14.3892 3.88086H14.1172V6.2531H14.3892L15.0296 5.6127Z" fill="white"/>
<path d="M5.28755 6.94802H5.75927V3.82864L6.3687 1.65609L7.35689 0.802225H10.9447L11.9328 1.65609L12.5423 3.82864V6.94802H13.014C13.3273 6.63471 13.5029 6.45911 13.8128 6.14924V3.98358C13.5924 3.76322 13.4409 3.61173 13.2619 3.4327L12.6387 1.2085L11.2442 0H7.06078L5.6663 1.2085L5.04309 3.4327L4.49219 3.98358V6.14924C4.80551 6.46256 4.98112 6.63815 5.291 6.94802H5.28755Z" fill="white"/>
<path d="M17.956 18.2793H0.344315L0 18.6236V19.6565C0.134283 19.7908 0.210032 19.8665 0.344315 20.0008H17.956L18.3004 19.6565V18.6236C18.1661 18.4893 18.0903 18.4136 17.956 18.2793Z" fill="white"/>
<path d="M9.14951 14.2574C9.93455 14.2574 10.5681 13.6239 10.5681 12.8389C10.5681 12.0539 9.93455 11.4238 9.14951 11.4238C8.36447 11.4238 7.73438 12.0573 7.73438 12.8389C7.73438 13.6205 8.37136 14.2574 9.14951 14.2574Z" fill="white"/>
<path d="M3.79975 17.2462H14.5045C14.8385 16.84 15.0279 16.6162 15.3618 16.2133L16.6324 9.46845L15.5994 8.43555H2.70482C2.30197 8.83838 2.07472 9.06562 1.67188 9.46845L2.9424 16.2133C3.27638 16.6162 3.46576 16.84 3.79975 17.2462ZM6.4854 12.2883L6.57148 12.2022H6.94679C6.99499 12.037 7.06041 11.8786 7.14304 11.734L6.87448 11.4654V11.3449L7.65951 10.5633H7.78003L8.04515 10.8284C8.18976 10.7458 8.34815 10.6804 8.51342 10.6356V10.2604C8.54785 10.2259 8.56507 10.2087 8.5995 10.1743H9.70475L9.79083 10.2604V10.6356C9.9561 10.6838 10.1145 10.7493 10.2591 10.8319L10.5242 10.5633H10.6447L11.4298 11.3449V11.4654L11.1612 11.734C11.2438 11.8786 11.3093 12.037 11.3575 12.2022H11.7328C11.7672 12.2332 11.7844 12.2539 11.8188 12.2883V13.3935C11.7844 13.4245 11.7672 13.4451 11.7328 13.4796H11.3575C11.3093 13.6448 11.2473 13.7998 11.1646 13.9478L11.4298 14.2129V14.3334L10.6447 15.115H10.5277L10.2591 14.8499C10.1145 14.9325 9.9561 14.998 9.79083 15.0462V15.4214L9.70475 15.5075H8.5995L8.51342 15.4214V15.0462C8.34815 14.998 8.18976 14.9325 8.04515 14.8533L7.78003 15.115H7.65951L6.87448 14.3334V14.2129L7.1396 13.9478C7.05697 13.7998 6.99499 13.6448 6.94679 13.4796H6.57148L6.4854 13.3935V12.2883Z" fill="white"/>
<path d="M11.2302 2.75117C10.7585 2.04191 10.001 1.58398 9.15054 1.58398C8.04184 1.58398 7.09498 2.36555 6.72656 3.46043H8.64095L9.64635 2.75117H11.2302Z" fill="white"/>
<path d="M6.55469 4.49329C6.55469 6.10119 7.71847 7.40265 9.15082 7.40265C10.5832 7.40265 11.7504 6.10119 11.7504 4.49329C11.7504 4.05603 11.6643 3.63942 11.5059 3.26758H9.80846L8.80651 3.97684H6.596C6.56846 4.14211 6.55469 4.3177 6.55469 4.49329Z" fill="white"/>
</svg>
