<svg width="26" height="19" viewBox="0 0 26 19" fill="none" xmlns="http://www.w3.org/2000/svg">
<path d="M0 9.62192V11.9475L1.3622 13.3097H1.93809V8.25977H1.3622L0 9.62192Z" fill="white"/>
<path d="M23.6853 8.25977H23.1094V13.3097H23.6853C24.2169 12.7781 24.5159 12.4791 25.0475 11.9475V9.62192C24.5159 9.09034 24.2169 8.79134 23.6853 8.25977Z" fill="white"/>
<path d="M19.948 2.56926L16.9799 0H8.0684L5.10035 2.56926L3.77137 7.30542C3.38745 7.68933 3.06258 8.01418 2.59375 8.483V13.0936C3.25824 13.7581 3.63109 14.131 4.29558 14.7954H5.2997V8.15076L6.59545 3.52166L8.69967 1.70177H16.3413L18.4455 3.52166L19.7413 8.14708V14.74L18.8294 16.7593L15.5218 17.2022C15.411 17.1284 15.3003 17.0509 15.1563 16.9549L12.2547 17.3462C12.0332 17.6157 11.904 17.7744 11.6788 18.0439L11.7452 18.4721C12.048 18.6788 12.2178 18.7933 12.5205 19L15.4221 18.6087C15.5513 18.45 15.651 18.3282 15.7543 18.2026L19.5272 17.7006L20.9152 14.6293L22.4509 13.0936V8.483L21.2733 7.30542L19.9443 2.56926H19.948Z" fill="white"/>
</svg>
