<svg width="16" height="20" viewBox="0 0 16 20" fill="none" xmlns="http://www.w3.org/2000/svg">
<path d="M7.85732 0C3.51972 0.00535726 0.00535726 3.51972 0 7.85732C0 14.5807 7.14302 19.6612 7.44659 19.8754C7.69571 20.0415 8.01893 20.0415 8.26804 19.8754C8.57162 19.6612 15.7146 14.5807 15.7146 7.85732C15.7093 3.51972 12.1949 0.00535726 7.85732 0ZM7.85732 5.00011C9.43503 5.00011 10.7145 6.2796 10.7145 7.85732C10.7145 9.43503 9.43503 10.7145 7.85732 10.7145C6.2796 10.7145 5.00011 9.43503 5.00011 7.85732C5.00011 6.2796 6.2796 5.00011 7.85732 5.00011Z" fill="white"/>
</svg>
