<svg width="22" height="23" viewBox="0 0 22 23" fill="none" xmlns="http://www.w3.org/2000/svg">
<mask id="mask0_2169_55029" style="mask-type:luminance" maskUnits="userSpaceOnUse" x="0" y="0" width="22" height="23">
<path d="M21.64 0H0V22.1268H21.64V0Z" fill="white"/>
</mask>
<g mask="url(#mask0_2169_55029)">
<path d="M12.8778 9.36366L20.934 0H19.025L12.0309 8.1306L6.44292 0H0L8.44842 12.2945L0 22.1147H1.90894L9.29527 13.5275L15.1951 22.1147H21.638L12.8758 9.36366H12.8778ZM10.2648 12.4031L9.40792 11.1781L2.59688 1.43623H5.52969L11.0252 9.29929L11.8821 10.5243L19.027 20.7449H16.0942L10.2648 12.4051V12.4031Z" fill="white"/>
<path d="M22.4064 22.519H14.9859L9.26109 14.1892L2.09603 22.519H-0.875L7.94354 12.2682L-0.762354 -0.400391H6.65817L12.0692 7.47474L18.844 -0.400391H21.815L13.3887 9.39374L22.4084 22.519H22.4064ZM15.4103 21.7143H20.8777L12.1154 8.96327H12.6968L20.061 0.40422H19.2141L11.9988 8.79028L6.23374 0.40422H0.766407L8.95735 12.3245L0.879052 21.7143H1.72591L9.3335 12.8717L15.4103 21.7143ZM19.8015 21.1471H15.8871L1.82648 1.03584H5.74092L19.8015 21.1471ZM16.3055 20.3425H18.2566L5.32252 1.84045H3.37134L16.3055 20.3425Z" fill="white"/>
</g>
</svg>
