<svg width="85" height="85" viewBox="0 0 85 85" fill="none" xmlns="http://www.w3.org/2000/svg">
<rect x="3.26138" y="3.26431" width="78.3656" height="78.3656" fill="black" fill-opacity="0.2" stroke="#202020" stroke-width="1.63213"/>
<path d="M14.8588 82.4453H2.44531V70.0319" stroke="#414141" stroke-width="4.8964"/>
<path d="M70.0319 82.4453H82.4453V70.0319" stroke="#414141" stroke-width="4.8964"/>
<path d="M14.8588 2.44824H2.44531V14.8617" stroke="#414141" stroke-width="4.8964"/>
<path d="M70.0319 2.44824H82.4453V14.8617" stroke="#414141" stroke-width="4.8964"/>
<path d="M60.0017 58.5811H25.6827C24.3399 59.9238 23.5877 60.6788 22.2422 62.0216V64.6208H63.4422V62.0216C62.0994 60.6788 61.3444 59.9238 60.0017 58.5811Z" fill="white"/>
<path d="M36.1171 56.3169H39.0911H41.7982L38.0665 46.3782C37.3142 46.211 36.7534 45.5396 36.7534 44.7361C36.7534 43.8059 37.5084 43.0509 38.4386 43.0509C39.3688 43.0509 40.1238 43.8059 40.1238 44.7361C40.1238 45.0974 40.0079 45.4372 39.8083 45.7122L43.7908 56.3169H47.2691L33.4477 19.5254H24.6172L36.1171 50.1423V56.3169Z" fill="white"/>
</svg>
