<svg width="85" height="85" viewBox="0 0 85 85" fill="none" xmlns="http://www.w3.org/2000/svg">
<rect x="3.26138" y="3.26431" width="78.3656" height="78.3656" fill="black" fill-opacity="0.2" stroke="#202020" stroke-width="1.63213"/>
<path d="M14.8588 82.4453H2.44531V70.0319" stroke="#414141" stroke-width="4.8964"/>
<path d="M70.0319 82.4453H82.4453V70.0319" stroke="#414141" stroke-width="4.8964"/>
<path d="M14.8588 2.44824H2.44531V14.8617" stroke="#414141" stroke-width="4.8964"/>
<path d="M70.0319 2.44824H82.4453V14.8617" stroke="#414141" stroke-width="4.8964"/>
<path d="M58.8683 36.5373L56.0659 39.5485L51.9226 38.595L50.6764 34.5292L53.4293 31.5719C51.589 31.3932 49.6885 32.0432 48.3304 33.5004C46.8108 35.134 46.348 37.3746 46.9163 39.3742L42.2112 44.4279L37.5062 39.3742C38.0744 37.3725 37.6138 35.134 36.0921 33.5004C34.7339 32.0432 32.8334 31.3932 30.9932 31.5719L33.746 34.5292L32.4998 38.595L28.3565 39.5485L25.5542 36.5373C25.2012 38.3948 25.7048 40.39 27.0931 41.8795C28.6148 43.5131 30.8145 44.133 32.8506 43.709L37.8656 49.0963L29.6996 57.8693L29.7103 57.8801C29.6329 57.9511 29.5554 58.0243 29.4822 58.1018C28.2855 59.3867 28.3565 61.3992 29.6436 62.5959C30.9286 63.7926 32.941 63.7215 34.1377 62.4344C34.2109 62.357 34.2798 62.2752 34.3444 62.1912L34.3551 62.202L42.2112 53.7626L50.0673 62.202L50.0781 62.1912C50.1426 62.2752 50.2115 62.3548 50.2847 62.4344C51.4814 63.7194 53.4938 63.7926 54.7788 62.5959C56.0638 61.3992 56.1369 59.3867 54.9402 58.1018C54.867 58.0243 54.7917 57.949 54.7121 57.8801L54.7228 57.8693L46.5568 49.0963L51.5718 43.709C53.6079 44.133 55.8098 43.5131 57.3293 41.8795C58.7155 40.39 59.2213 38.3948 58.8683 36.5373ZM35.4593 42.4671C35.5691 42.3788 35.6767 42.2863 35.78 42.1894C35.8855 42.0926 35.9823 41.9914 36.0792 41.8881L40.3258 46.4489L39.7468 47.0709L35.4593 42.4649V42.4671ZM42.2112 48.4721L42.7902 49.0942L42.2112 49.7162L41.6322 49.0942L42.2112 48.4721ZM33.068 61.0031L32.2824 61.8468L30.6531 61.4723L30.1623 59.8753L30.948 59.0316L31.3009 58.6528L32.9303 59.0273L33.421 60.6265L33.068 61.0053V61.0031ZM34.2863 58.2288L33.6664 57.6519L39.7489 51.1195L40.3279 51.7416L34.2863 58.2309V58.2288ZM51.49 59.0251L53.1193 58.6506L53.4723 59.0294L54.2579 59.8732L53.7672 61.4702L52.1379 61.8447L51.3523 61.001L50.9993 60.6222L51.49 59.023V59.0251ZM50.7539 57.6498L50.134 58.2266L44.0924 51.7373L44.6714 51.1152L50.7539 57.6476V57.6498ZM44.6714 47.0731L44.0924 46.4511L48.339 41.8902C48.4358 41.9936 48.5348 42.0947 48.6381 42.1916C48.7415 42.2884 48.8512 42.381 48.9588 42.4692L44.6714 47.0753V47.0731Z" fill="white"/>
<path d="M34.2598 30.3904H50.1807C50.3142 30.2569 50.3874 30.1837 50.5187 30.0525V29.6866L50.1807 29.3486H34.2598L33.9219 29.6866V30.0525L34.2598 30.3904Z" fill="white"/>
<path d="M49.4748 27.9384C49.7202 27.65 49.8342 27.5144 50.0796 27.2238C49.8515 25.743 49.1584 24.3634 48.0865 23.2915C46.9565 22.1615 45.4843 21.4512 43.9131 21.264C43.7302 21.4276 43.6376 21.5072 43.4547 21.6708V24.8821C43.375 24.9617 43.3298 25.0069 43.2502 25.0866H42.9446C42.8649 25.0069 42.8197 24.9617 42.7401 24.8821V20.7861L42.4022 20.4482H42.0363L41.6983 20.7861V24.8821C41.6187 24.9617 41.5735 25.0069 41.4939 25.0866H41.1882C41.1086 25.0069 41.0634 24.9617 40.9838 24.8821V21.6686C40.8008 21.5051 40.7083 21.4254 40.5253 21.2618C38.9476 21.4469 37.469 22.1594 36.3347 23.2893C35.265 24.3612 34.5719 25.7409 34.3438 27.2217C34.5891 27.5101 34.7032 27.6457 34.9486 27.9363H49.4748V27.9384Z" fill="white"/>
</svg>
