<svg width="85" height="85" viewBox="0 0 85 85" fill="none" xmlns="http://www.w3.org/2000/svg">
<rect x="3.26138" y="3.26431" width="78.3656" height="78.3656" fill="black" fill-opacity="0.2" stroke="#202020" stroke-width="1.63213"/>
<path d="M14.8588 82.4453H2.44531V70.0319" stroke="#414141" stroke-width="4.8964"/>
<path d="M70.0319 82.4453H82.4453V70.0319" stroke="#414141" stroke-width="4.8964"/>
<path d="M14.8588 2.44824H2.44531V14.8617" stroke="#414141" stroke-width="4.8964"/>
<path d="M70.0319 2.44824H82.4453V14.8617" stroke="#414141" stroke-width="4.8964"/>
<path d="M48.2895 33.8135C47.4217 34.6812 46.7468 35.3562 46.0685 36.0344C45.3986 36.706 44.7253 37.3776 43.8676 38.237H43.8493V40.5677H40.2253V33.8135H30.2045C29.3368 34.6812 28.6602 35.3562 27.9836 36.0344C27.312 36.706 26.6404 37.3776 25.7809 38.237H25.7627V40.5677H24.7752L23.4453 41.8976V58.513H27.5846V50.0864C27.9088 49.7623 28.09 49.5811 28.4158 49.2552H35.5108C35.835 49.5811 36.0178 49.7623 36.342 50.0864V58.513H46.3794C46.3495 58.513 46.3262 58.4897 46.3262 58.4598V46.9662L47.1574 46.135H58.2587C58.287 46.135 58.3102 46.1582 58.3102 46.1865V33.8135H48.2895ZM32.3723 38.2553H33.614V40.5062H32.3723V38.2553ZM28.5704 38.2553H29.8122V40.5062H28.5704V38.2553ZM37.4175 40.5062H36.1758V38.2553H37.4175V40.5062ZM47.8988 40.5062H46.657V38.2553H47.8988V40.5062ZM51.7006 40.5062H50.4589V38.2553H51.7006V40.5062ZM55.5025 40.5062H54.2607V38.2553H55.5025V40.5062Z" fill="white"/>
<path d="M40.2236 31.127H34.4518C34.2573 31.3215 34.1476 31.4312 33.9531 31.6257V32.6198H40.2236V31.127Z" fill="white"/>
<path d="M58.3095 31.127H52.5378L52.0391 31.6257V32.6198H58.3095V31.127Z" fill="white"/>
<path d="M40.2235 25.8623H37.3542L35.3594 27.8572V29.9102H40.2235V25.8623Z" fill="white"/>
<path d="M58.3094 25.8623H55.4402L53.4453 27.8572V29.9102H58.3094V25.8623Z" fill="white"/>
<path d="M34.7329 50.7178H29.1988C29.0226 50.8956 28.9245 50.9971 28.75 51.1749V58.5126H35.1817V51.1749C35.0072 50.9971 34.9091 50.8956 34.7329 50.7178Z" fill="white"/>
<path d="M51.4669 53.2295V54.4463C51.2758 54.6375 51.1677 54.7439 50.9765 54.9368H49.9841C49.7929 54.7439 49.6865 54.6375 49.4937 54.4463V53.2295H47.9045L47.4141 53.7199V58.0238C47.6052 58.2149 47.7133 58.323 47.9045 58.5142H53.0578C53.249 58.323 53.357 58.2149 53.5482 58.0238V53.7199L53.0578 53.2295H51.4669Z" fill="white"/>
<path d="M53.0578 47.1309H51.4669V48.3461C51.2758 48.5372 51.1677 48.6453 50.9765 48.8365H49.9841C49.7929 48.6453 49.6865 48.5372 49.4937 48.3461V47.1309H47.9045C47.7133 47.322 47.6052 47.4284 47.4141 47.6213V51.9235L47.9045 52.4139H53.0578L53.5482 51.9235V47.6213C53.357 47.4284 53.249 47.322 53.0578 47.1309Z" fill="white"/>
<path d="M59.9563 47.1309H58.3487V48.3643C58.1675 48.5439 58.0611 48.6519 57.8766 48.8365H56.8842C56.693 48.6453 56.585 48.5372 56.3938 48.3461V47.1309H54.8029C54.6117 47.322 54.5037 47.4284 54.3125 47.6213V51.9235L54.8029 52.4139H59.9563L60.4467 51.9235V47.6213C60.2555 47.4284 60.1474 47.322 59.9563 47.1309Z" fill="white"/>
<path d="M58.3487 53.2295V54.4646C58.1675 54.6442 58.0611 54.7506 57.8766 54.9368H56.8842C56.693 54.7439 56.585 54.6375 56.3938 54.4463V53.2295H54.8029L54.3125 53.7199V58.0238C54.5037 58.2149 54.6117 58.323 54.8029 58.5142H59.9563C60.1474 58.323 60.2555 58.2149 60.4467 58.0238V53.7199L59.9563 53.2295H58.3487Z" fill="white"/>
</svg>
