<svg width="85" height="85" viewBox="0 0 85 85" fill="none" xmlns="http://www.w3.org/2000/svg">
<rect x="3.26138" y="3.26431" width="78.3656" height="78.3656" fill="black" fill-opacity="0.2" stroke="#202020" stroke-width="1.63213"/>
<path d="M14.8588 82.4453H2.44531V70.0319" stroke="#414141" stroke-width="4.8964"/>
<path d="M70.0319 82.4453H82.4453V70.0319" stroke="#414141" stroke-width="4.8964"/>
<path d="M14.8588 2.44824H2.44531V14.8617" stroke="#414141" stroke-width="4.8964"/>
<path d="M70.0319 2.44824H82.4453V14.8617" stroke="#414141" stroke-width="4.8964"/>
<path d="M61.1001 27.3768L66.4463 27.3467V28.7563L66.4409 53.9996V58.2904H18.9098V54.0014L18.9062 28.7563C18.9062 27.9045 18.9062 27.3467 18.9062 27.3467L24.2542 27.3768L32.037 33.488L53.3544 33.4826L61.1001 27.3768ZM32.0707 48.1434L27.4612 52.2022L34.9288 52.2164L36.7723 48.1682L32.0707 48.1434ZM39.85 48.1523L38.0048 52.1987L47.3548 52.2181L45.522 48.1665L39.85 48.1523ZM48.5802 48.1594L50.4219 52.2128L57.8896 52.2093L53.3704 48.1895L48.5802 48.1612V48.1594ZM25.1432 42.2182L25.1538 50.5146L30.1564 46.1194L30.1493 42.2111L25.1432 42.2182ZM55.1926 46.1176L60.1987 50.5022L60.2094 42.22L55.2209 42.2076L55.1926 46.1176ZM37.5798 45.3862V42.2111H32.9171V45.3862H37.5798ZM45.0067 45.3862V42.2111H40.3441V45.3862H45.0067ZM52.4354 45.3862V42.2111H47.7727V45.3862H52.4354ZM25.1662 31.6463L25.1361 39.4291L30.1422 39.4344L30.1741 35.5811L25.1662 31.6445V31.6463ZM37.5798 39.4433V36.2682H32.9171V39.4433H37.5798ZM45.0067 39.4433V36.2682H40.3441V39.4433H45.0067ZM52.4354 39.4433V36.2682H47.7727V39.4433H52.4354ZM55.2156 35.5351L55.1961 39.4309H60.2094L60.2023 31.6357L55.2156 35.5333V35.5351Z" fill="white"/>
</svg>
