<svg width="197" height="217" viewBox="0 0 197 217" fill="none" xmlns="http://www.w3.org/2000/svg">
<path fill-rule="evenodd" clip-rule="evenodd" d="M9.67524 158.944L14.8712 186.263C14.5117 182.2 15.3852 178.124 17.3796 174.555C26.0693 159.654 58.2306 141.915 144.143 126.127L162.06 83.02C30.0111 109.185 5.91264 139.254 9.58565 158.944H9.67524ZM25.0839 174.289C23.2558 176.245 21.8578 178.555 20.9787 181.076C20.0998 183.595 19.7589 186.266 19.9776 188.924C20.3757 192.691 21.8397 196.271 24.2009 199.252C26.5621 202.233 29.7249 204.495 33.3258 205.777C45.6975 211.39 58.8739 215.07 72.3851 216.685L67.6371 189.633C52.5544 187.406 38.0812 182.187 25.0839 174.289ZM0.537513 111.314H0L6.27099 143.955C5.70909 138.692 6.63976 133.378 8.95855 128.61C19.2608 108.032 59.1264 81.9556 172.274 58.2737L196.371 0C23.4715 40.2683 -4.47928 84.173 0.537513 111.314Z" fill="white"/>
</svg>
