<svg width="224" height="32" viewBox="0 0 224 32" fill="none" xmlns="http://www.w3.org/2000/svg">
<g clip-path="url(#clip0_2126_47479)">
<g clip-path="url(#clip1_2126_47479)">
<g clip-path="url(#clip2_2126_47479)">
<path fill-rule="evenodd" clip-rule="evenodd" d="M91.3244 17.4598L88.0142 11.0447H84.8324L82.0097 23.8748H85.615L87.0391 17.4598L90.3493 23.8748H93.5311L96.3537 11.1089H92.7485L91.3244 17.4598ZM97.1492 13.8417H100.767L98.5605 23.8106H102.166L104.373 13.8417H108.003L108.619 11.0447H97.765L97.1492 13.8417ZM115.714 17.4213C115.843 16.8482 115.958 16.3735 116.061 15.9971C116.153 15.6968 116.26 15.4013 116.381 15.1119C116.454 14.9256 116.548 14.7489 116.664 14.5858L116.972 14.2651C117.163 14.0962 117.385 13.9656 117.626 13.8802C117.909 13.773 118.209 13.7207 118.511 13.7262C118.732 13.6991 118.956 13.722 119.167 13.793C119.378 13.8641 119.571 13.9815 119.73 14.1368C119.943 14.4157 120.072 14.7495 120.102 15.099H123.784C123.81 14.4685 123.705 13.8396 123.476 13.2515C123.265 12.7553 122.94 12.3158 122.527 11.9685C122.089 11.6123 121.583 11.3503 121.039 11.1987C120.413 11.0231 119.765 10.9367 119.114 10.9421C118.313 10.9305 117.515 11.0519 116.754 11.3013C116.027 11.5501 115.343 11.9093 114.726 12.3662C114.296 12.6697 113.916 13.0375 113.597 13.4568C113.308 13.8312 113.066 14.2408 112.879 14.6756C112.695 15.1114 112.549 15.5621 112.443 16.0228C112.327 16.4718 112.225 16.9466 112.122 17.4213C112.019 17.896 111.917 18.3707 111.814 18.8326C111.73 19.2556 111.678 19.6846 111.66 20.1156C111.647 20.5503 111.708 20.9841 111.84 21.3986C111.968 21.8061 112.187 22.1791 112.481 22.4891C112.915 22.9529 113.445 23.3163 114.034 23.554C114.743 23.8171 115.496 23.9434 116.253 23.9261C116.937 23.9271 117.618 23.8409 118.28 23.6695C118.927 23.5068 119.546 23.2473 120.115 22.8997C121.307 22.1546 122.235 21.0555 122.771 19.7563H119.063C118.869 20.1224 118.603 20.4454 118.28 20.7058C117.955 20.9152 117.586 21.0483 117.201 21.0949C116.817 21.1416 116.427 21.1007 116.061 20.9752C115.861 20.8969 115.69 20.7578 115.573 20.5775C115.504 20.4799 115.452 20.3715 115.419 20.2567C115.387 20.0871 115.387 19.9131 115.419 19.7435C115.416 19.4476 115.433 19.1518 115.471 18.8582C115.471 18.4862 115.586 17.9601 115.714 17.4213ZM80.3033 18.7684L80.9192 15.9715H75.4536L75.9283 13.8417H82.3433L82.972 11.0447H72.9645L70.1419 23.8748H80.1494L80.7652 21.0778H74.3502L74.8506 18.8326L80.3033 18.7684ZM209.541 17.9601C209.876 17.7579 210.186 17.5167 210.464 17.2416C210.765 16.9635 211.024 16.6438 211.234 16.2922C211.461 15.9287 211.626 15.5297 211.722 15.1119C211.837 14.6095 211.837 14.0875 211.722 13.5851C211.611 13.1079 211.382 12.6665 211.054 12.3021C210.677 11.8889 210.206 11.5722 209.682 11.3783C209.013 11.1312 208.303 11.0137 207.59 11.0319H201.753L198.93 23.862H202.535L203.587 19.1148H204.806L206.372 23.862H210.593L208.578 18.5375C208.917 18.3774 209.24 18.184 209.541 17.9601ZM208.116 15.1247C208.023 15.4872 207.805 15.8052 207.501 16.0228C207.132 16.3011 206.679 16.4418 206.218 16.4205H204.152L204.716 13.8545H206.795C206.994 13.8363 207.194 13.8613 207.382 13.9277C207.57 13.9942 207.742 14.1005 207.885 14.2394C207.995 14.3638 208.073 14.5126 208.113 14.6733C208.153 14.834 208.154 15.0019 208.116 15.1632V15.1247ZM52.4493 11.0447H48.844L46.0214 23.8748H55.8236L56.4523 21.0137H50.2425L52.4493 11.0447ZM67.2937 11.0447L65.4333 19.2431C65.3227 19.7902 65.0229 20.2808 64.5865 20.6288C64.127 20.9562 63.5723 21.1231 63.0084 21.1035C62.7731 21.1204 62.5369 21.0868 62.3156 21.0049C62.0943 20.923 61.8931 20.7948 61.7254 20.6288C61.5819 20.4316 61.4873 20.2031 61.4494 19.9622C61.4115 19.7213 61.4313 19.4749 61.5073 19.2431L63.3163 11.0319H59.7239L57.8892 19.3073C57.7285 19.9344 57.7285 20.5919 57.8892 21.219C58.0484 21.7694 58.3544 22.2662 58.7745 22.6559C59.215 23.0844 59.7518 23.4011 60.3398 23.5797C61.0137 23.8042 61.7208 23.9127 62.4311 23.9004C63.1869 23.9028 63.9389 23.7947 64.6635 23.5797C65.3936 23.3922 66.0874 23.0843 66.7163 22.6688C67.3024 22.279 67.8185 21.7932 68.2431 21.2318C68.6646 20.669 68.958 20.021 69.1027 19.3329L70.9374 11.0447H67.2937ZM40.0554 13.8417H46.4705L47.0863 11.0447H37.0789L34.2563 23.8748H37.8487L38.9392 18.948H44.4048L45.0207 16.1383H39.5551L40.0554 13.8417ZM184.535 11.0447L181.225 15.6379L179.942 11.0447H175.99L178.761 18.6145L177.619 23.7465H181.225L182.366 18.6145L188.499 11.0447H184.535ZM222.101 17.1005C221.359 16.4528 220.417 16.0811 219.433 16.0485L217.7 15.8303C217.493 15.8151 217.29 15.7675 217.097 15.6892C216.978 15.6245 216.866 15.5471 216.764 15.4583C216.682 15.3737 216.629 15.2663 216.61 15.1503C216.597 15.0567 216.597 14.9617 216.61 14.8681C216.648 14.7164 216.713 14.5729 216.802 14.4447C216.917 14.2944 217.056 14.1643 217.213 14.0598C217.401 13.9348 217.609 13.8436 217.829 13.7904C218.095 13.7089 218.372 13.6699 218.65 13.6749H219.24C219.469 13.6758 219.697 13.7016 219.92 13.7519C220.166 13.801 220.407 13.874 220.639 13.97C220.883 14.0762 221.102 14.2337 221.28 14.4319L224 12.456C223.479 11.9028 222.819 11.4996 222.088 11.2885C221.214 11.0316 220.305 10.9104 219.394 10.9293C218.605 10.9221 217.819 11.0258 217.059 11.2372C216.396 11.4251 215.765 11.7105 215.186 12.084C214.688 12.4349 214.254 12.8689 213.903 13.367C213.552 13.8506 213.303 14.4006 213.171 14.9836C213.03 15.4153 212.997 15.8752 213.076 16.3226C213.154 16.7701 213.341 17.1914 213.62 17.5496C214.367 18.2326 215.33 18.6321 216.34 18.6786L218.073 18.8967C218.402 18.8987 218.72 19.0168 218.971 19.2303C219.05 19.3376 219.102 19.4626 219.122 19.5945C219.142 19.7264 219.13 19.8612 219.086 19.9873C218.919 20.7571 218.137 21.1292 216.725 21.1292C216.134 21.1293 215.545 21.0647 214.968 20.9367C214.482 20.8347 214.036 20.594 213.685 20.2439L210.913 22.2454C211.2 22.5714 211.538 22.8487 211.914 23.0665C212.294 23.294 212.705 23.4668 213.133 23.5797C213.594 23.7124 214.067 23.8026 214.544 23.8491C215.072 23.9132 215.604 23.9432 216.135 23.9389C216.896 23.9403 217.654 23.8498 218.393 23.6695C219.087 23.5141 219.753 23.2545 220.369 22.8997C220.949 22.5702 221.463 22.135 221.883 21.6167C222.294 21.1135 222.58 20.5199 222.717 19.8846C222.85 19.3653 222.884 18.8258 222.82 18.2937C222.727 17.8244 222.472 17.4024 222.101 17.1005ZM198.096 12.3662C197.662 11.9025 197.133 11.5391 196.544 11.3013C195.826 11.0328 195.064 10.9064 194.298 10.9293C193.475 10.9176 192.656 11.0433 191.874 11.3013C191.155 11.5586 190.477 11.9172 189.859 12.3662C189.429 12.6697 189.048 13.0375 188.73 13.4568C188.449 13.8346 188.212 14.2436 188.025 14.6756C187.837 15.111 187.686 15.5617 187.575 16.0228C187.473 16.4847 187.357 16.9466 187.255 17.4213C187.152 17.896 187.049 18.3707 186.96 18.8326C186.864 19.2537 186.812 19.6837 186.806 20.1156C186.788 20.5496 186.845 20.9834 186.972 21.3986C187.111 21.8045 187.334 22.1763 187.627 22.4891C188.058 22.9498 188.583 23.3129 189.166 23.554C189.888 23.8226 190.655 23.949 191.424 23.9261C192.244 23.9378 193.059 23.8121 193.837 23.554C194.556 23.2996 195.235 22.9408 195.851 22.4891C196.669 21.9003 197.308 21.0966 197.698 20.1669C197.881 19.7529 198.027 19.3236 198.135 18.8839C198.25 18.422 198.353 17.9601 198.455 17.4726C198.558 16.985 198.661 16.536 198.763 16.0741C198.848 15.6511 198.899 15.2221 198.917 14.7911C198.93 14.3564 198.87 13.9225 198.738 13.5081C198.62 13.0809 198.4 12.6889 198.096 12.3662ZM195.132 15.9971C195.081 16.3649 194.991 16.8396 194.863 17.4213C194.722 18.0115 194.606 18.4862 194.504 18.8454C194.401 19.2046 194.298 19.4869 194.209 19.7178C194.134 19.8991 194.04 20.0713 193.926 20.2311L193.631 20.5518C193.428 20.7204 193.198 20.8547 192.951 20.9495C192.662 21.0661 192.352 21.1228 192.04 21.1163C191.753 21.1288 191.467 21.0716 191.206 20.9495C191.009 20.8613 190.837 20.7245 190.706 20.5518C190.647 20.4487 190.596 20.3415 190.552 20.2311C190.522 20.0613 190.522 19.8876 190.552 19.7178C190.563 19.4254 190.593 19.1339 190.642 18.8454C190.693 18.4862 190.783 18.0115 190.911 17.4213C191.04 16.8439 191.155 16.3692 191.271 15.9971C191.353 15.7012 191.451 15.4099 191.566 15.1247C191.632 14.9399 191.727 14.7667 191.848 14.6115C191.936 14.4957 192.035 14.3883 192.143 14.2907C192.343 14.1177 192.574 13.9829 192.823 13.893C193.109 13.7825 193.414 13.7259 193.721 13.7262C194.012 13.7219 194.3 13.7788 194.568 13.893C194.763 13.979 194.932 14.1165 195.055 14.2907C195.121 14.392 195.177 14.4994 195.222 14.6115C195.247 14.7817 195.247 14.9545 195.222 15.1247C195.209 15.3941 195.184 15.6379 195.132 15.9971ZM135.55 12.3662C135.118 11.9056 134.593 11.5425 134.01 11.3013C133.288 11.0327 132.522 10.9064 131.752 10.9293C130.933 10.9185 130.118 11.0442 129.34 11.3013C128.62 11.5558 127.941 11.9146 127.326 12.3662C126.895 12.6697 126.515 13.0375 126.196 13.4568C125.911 13.8343 125.67 14.2433 125.478 14.6756C125.294 15.1114 125.148 15.5621 125.042 16.0228C124.926 16.4718 124.824 16.9466 124.721 17.4213C124.618 17.896 124.516 18.3707 124.413 18.8326C124.327 19.255 124.28 19.6845 124.272 20.1156C124.255 20.5496 124.311 20.9834 124.439 21.3986C124.567 21.8091 124.791 22.183 125.093 22.4891C125.52 22.9555 126.046 23.3196 126.633 23.554C127.35 23.8213 128.113 23.9476 128.878 23.9261C129.701 23.9378 130.521 23.8121 131.303 23.554C132.023 23.2996 132.701 22.9408 133.317 22.4891C133.745 22.1825 134.125 21.8151 134.446 21.3986C134.738 21.0023 134.979 20.5714 135.165 20.1156C135.348 19.7016 135.493 19.2722 135.601 18.8326C135.704 18.3707 135.819 17.9088 135.922 17.4213L136.23 16.0228C136.32 15.5793 136.367 15.1282 136.371 14.6756C136.381 14.263 136.325 13.8515 136.204 13.4568C136.074 13.0473 135.85 12.6738 135.55 12.3662ZM132.599 15.9971C132.599 16.3692 132.445 16.8439 132.316 17.4213C132.188 17.9986 132.073 18.4862 131.97 18.8454C131.867 19.2046 131.752 19.4869 131.662 19.7178C131.594 19.8956 131.504 20.0638 131.393 20.2182C131.296 20.3352 131.194 20.4466 131.085 20.5518C130.644 20.9236 130.083 21.124 129.507 21.1163C129.219 21.1288 128.933 21.0716 128.673 20.9495C128.472 20.8541 128.3 20.7082 128.172 20.5261C128.105 20.4229 128.053 20.3106 128.018 20.1926C127.981 20.0279 127.981 19.8569 128.018 19.6922C128.024 19.3999 128.05 19.1084 128.095 18.8197C128.095 18.4605 128.249 17.9858 128.378 17.3956C128.506 16.8054 128.621 16.3435 128.724 15.9715C128.827 15.5994 128.942 15.3171 129.032 15.099C129.095 14.9129 129.191 14.7392 129.314 14.5858C129.402 14.47 129.501 14.3627 129.609 14.2651C129.805 14.092 130.031 13.9571 130.276 13.8673C130.567 13.757 130.876 13.7004 131.187 13.7006C131.478 13.6963 131.767 13.7531 132.034 13.8673C132.23 13.9534 132.398 14.0908 132.522 14.2651C132.588 14.3643 132.639 14.4723 132.676 14.5858C132.71 14.7551 132.71 14.9297 132.676 15.099C132.676 15.3941 132.65 15.6379 132.599 15.9971ZM162.48 23.8106H172.487L173.103 21.0137H166.688L167.189 18.7684H172.654L173.27 15.9715H167.817L168.292 13.8417H174.707L175.323 11.0447H165.315L162.48 23.8106ZM145.711 17.4598L142.401 11.0447H139.219L136.396 23.8748H140.002L141.413 17.4598L144.736 23.8748H147.905L150.728 11.1089H147.135L145.711 17.4598ZM160.478 11.0447L156.45 18.1782L155.539 11.0447H151.792L153.832 23.8748H156.527L164.225 11.1089L160.478 11.0447ZM1.38565 22.9895L2.12979 26.9412C2.07831 26.3535 2.2034 25.7638 2.48903 25.2476C3.73355 23.0922 8.33954 20.5261 20.6436 18.2424L23.2096 12.007C4.29807 15.7918 0.846784 20.1412 1.37282 22.9895H1.38565ZM3.59242 25.2091C3.33059 25.4921 3.13038 25.8264 3.0045 26.1908C2.87861 26.5552 2.82978 26.9418 2.8611 27.3261C2.91814 27.8711 3.12778 28.389 3.46595 28.8202C3.80411 29.2514 4.25707 29.5785 4.77278 29.7638C6.5446 30.5759 8.43167 31.1083 10.3667 31.3419L9.6867 27.4287C7.52662 27.1064 5.45381 26.3515 3.59242 25.2091ZM0.0769804 16.0998H0L0.898104 20.8212C0.817631 20.06 0.950919 19.2914 1.28301 18.6016C2.75846 15.6251 8.46784 11.853 24.6722 8.4274L28.1235 -0.00195312C3.36148 5.82289 -0.641503 12.1738 0.0769804 16.0998Z" fill="white"/>
</g>
</g>
</g>
<defs>
<clipPath id="clip0_2126_47479">
<rect width="224" height="31.34" fill="white"/>
</clipPath>
<clipPath id="clip1_2126_47479">
<rect width="224" height="31.34" fill="white"/>
</clipPath>
<clipPath id="clip2_2126_47479">
<rect width="224" height="31.3438" fill="white" transform="translate(0 -0.00195312)"/>
</clipPath>
</defs>
</svg>
