<svg width="99" height="45" viewBox="0 0 99 45" fill="none" xmlns="http://www.w3.org/2000/svg">
<path d="M16.5777 24.2881C13.832 24.2881 11.6016 26.5185 11.6016 29.2643C11.6016 32.01 13.832 34.2404 16.5777 34.2404C19.3235 34.2404 21.5539 32.01 21.5539 29.2643C21.5539 26.5185 19.3235 24.2881 16.5777 24.2881ZM16.5777 32.179C14.9699 32.179 13.6629 30.8721 13.6629 29.2643C13.6629 27.6564 14.9699 26.3495 16.5777 26.3495C18.1856 26.3495 19.4925 27.6564 19.4925 29.2643C19.4925 30.8721 18.1856 32.179 16.5777 32.179Z" fill="white"/>
<path d="M82.023 24.2881C79.2814 24.2881 77.0469 26.5185 77.0469 29.2643C77.0469 32.01 79.2773 34.2404 82.023 34.2404C84.7688 34.2404 86.9992 32.01 86.9992 29.2643C86.9992 26.5185 84.7688 24.2881 82.023 24.2881ZM82.023 32.179C80.4152 32.179 79.1083 30.8721 79.1083 29.2643C79.1083 27.6564 80.4152 26.3495 82.023 26.3495C83.6309 26.3495 84.9378 27.6564 84.9378 29.2643C84.9378 30.8721 83.6309 32.179 82.023 32.179Z" fill="white"/>
<path d="M97.6053 23.3389C97.2755 22.6999 96.6571 22.3165 95.9975 22.2464C95.6883 21.3518 95.2884 20.4983 94.806 19.6985C95.4079 19.1708 95.6718 18.3133 95.4079 17.5052C95.3461 17.3197 94.1917 13.9514 90.6173 12.3229L77.9109 0.737977C77.6512 0.346315 77.2101 0.0865806 76.7071 0.0865806C76.101 0.0865806 75.5857 0.46175 75.3713 0.993586H70.5642C70.2014 0.399909 69.5541 0 68.8079 0H60.179C59.4328 0 58.7855 0.399909 58.4227 0.993586H55.3801C55.0173 0.399909 54.37 0 53.6238 0H44.9949C44.2486 0 43.6014 0.399909 43.2386 0.993586H40.196C39.8332 0.399909 39.1859 0 38.4397 0H29.8107C29.0645 0 28.4172 0.399909 28.0544 0.993586H23.2473C23.0329 0.46175 22.5176 0.0865806 21.9116 0.0865806C21.6559 0.0865806 21.4168 0.160793 21.2066 0.27623L21.1983 0.267983L21.1571 0.305086C21.0045 0.39991 20.8726 0.519467 20.7654 0.663764L8.03434 12.2735C4.36509 13.8813 3.18187 17.3197 3.12003 17.5093C2.83968 18.3586 3.14888 19.2491 3.81265 19.7686C3.3509 20.5437 2.96337 21.3724 2.66241 22.2423C1.98215 22.3 1.34724 22.6916 1.00918 23.343C0.918478 23.5203 -1.20473 27.7173 0.992697 32.3842C1.31427 33.0686 1.96154 33.485 2.66241 33.5551C2.96337 34.425 3.3509 35.2496 3.81265 36.0288C3.14888 36.5482 2.8438 37.4429 3.12003 38.288C3.20248 38.5354 5.18964 44.3361 12.153 44.3361C13.1919 44.3361 14.0453 43.561 14.1855 42.5633C14.5854 42.6004 14.9894 42.621 15.4017 42.621H16.4654C16.4736 43.7507 17.393 44.6659 18.5268 44.6659H29.1181C30.2519 44.6659 31.1713 43.7507 31.1795 42.621H33.4305C33.4388 43.7507 34.3582 44.6659 35.4919 44.6659H46.0833C47.217 44.6659 48.1364 43.7507 48.1446 42.621H50.3957C50.4039 43.7507 51.3233 44.6659 52.457 44.6659H63.0484C64.1822 44.6659 65.1015 43.7507 65.1098 42.621H67.3608C67.369 43.7507 68.2884 44.6659 69.4222 44.6659H80.0135C81.1473 44.6659 82.0667 43.7507 82.0749 42.621H83.2664C83.6333 42.621 83.9961 42.6004 84.3548 42.5716C84.4991 43.5693 85.3484 44.3361 86.3873 44.3361C93.3507 44.3361 95.3378 38.5354 95.4203 38.288C95.6883 37.48 95.4244 36.6183 94.8266 36.0865C95.3048 35.2908 95.7006 34.4415 96.0098 33.551C96.6942 33.4727 97.325 33.0521 97.6383 32.3842C99.8357 27.7173 97.7125 23.5162 97.6218 23.343L97.6053 23.3389ZM8.7476 14.4626L21.6683 2.09436H24.6738L11.7531 14.4626H11.749V15.2872H8.7517V14.4626H8.7476ZM16.5808 37.0966C12.2561 37.0966 8.7476 33.5881 8.7476 29.2633C8.7476 24.9386 12.2561 21.4301 16.5808 21.4301C20.9056 21.4301 24.4141 24.9386 24.4141 29.2633C24.4141 33.5881 20.9056 37.0966 16.5808 37.0966ZM26.4466 14.4626H26.4425V15.2872H23.4452V14.4626L33.0512 2.09436H36.0567L26.4507 14.4626H26.4466ZM38.3943 37.0966C34.0696 37.0966 30.5611 33.5881 30.5611 29.2633C30.5611 24.9386 34.0696 21.4301 38.3943 21.4301C42.7191 21.4301 46.2276 24.9386 46.2276 29.2633C46.2276 33.5881 42.7191 37.0966 38.3943 37.0966ZM42.1131 14.4626H42.1089V15.2872H39.1117V14.4626L43.4612 2.09436H46.4667L42.1172 14.4626H42.1131ZM55.1492 2.09436L59.4987 14.4626V15.2872H56.5015V14.4626H56.4974L52.1478 2.09436H55.1533H55.1492ZM60.2119 37.0966C55.8872 37.0966 52.3787 33.5881 52.3787 29.2633C52.3787 24.9386 55.8872 21.4301 60.2119 21.4301C64.5367 21.4301 68.0452 24.9386 68.0452 29.2633C68.0452 33.5881 64.5367 37.0966 60.2119 37.0966ZM72.1597 14.4626L62.5537 2.09436H65.5592L75.1652 14.4626V15.2872H72.1679V14.4626H72.1638H72.1597ZM82.0296 37.0966C77.7048 37.0966 74.1963 33.5881 74.1963 29.2633C74.1963 24.9386 77.7048 21.4301 82.0296 21.4301C86.3543 21.4301 89.8628 24.9386 89.8628 29.2633C89.8628 33.5881 86.3543 37.0966 82.0296 37.0966ZM89.8628 15.2872H86.8656V14.4626H86.8614L73.9407 2.09436H76.9462L89.8669 14.4626V15.2872H89.8628Z" fill="white"/>
</svg>
