<svg width="85" height="85" viewBox="0 0 85 85" fill="none" xmlns="http://www.w3.org/2000/svg">
<rect x="3.26138" y="3.26431" width="78.3656" height="78.3656" fill="black" fill-opacity="0.2" stroke="#202020" stroke-width="1.63213"/>
<path d="M14.8588 82.4453H2.44531V70.0319" stroke="#414141" stroke-width="4.8964"/>
<path d="M70.0319 82.4453H82.4453V70.0319" stroke="#414141" stroke-width="4.8964"/>
<path d="M14.8588 2.44824H2.44531V14.8617" stroke="#414141" stroke-width="4.8964"/>
<path d="M70.0319 2.44824H82.4453V14.8617" stroke="#414141" stroke-width="4.8964"/>
<path d="M61.8158 31.3094H59.0551C58.6932 30.1059 58.2134 28.9528 57.6159 27.8756L59.5854 25.9061V25.014L53.8284 19.274H52.9278L50.9835 21.2351C49.9062 20.6375 48.7447 20.1578 47.5495 19.8043V17.0437L46.9183 16.4209H38.7794L38.1565 17.0437V19.8043C36.9361 20.1409 35.7746 20.6291 34.6973 21.2182L32.753 19.274H31.8609L26.1039 25.014V25.9061L28.0649 27.8756C27.4589 28.9528 26.9876 30.1059 26.6341 31.3094H23.8734L23.2422 31.9407V40.0709L23.8734 40.7021H26.6341C26.9708 41.9225 27.4505 43.0839 28.0481 44.1612L26.1039 46.1054V46.9975L31.8609 52.7543H32.753L34.6973 50.8101C35.5894 51.3067 36.5321 51.7191 37.5169 52.0221V44.9608C34.4784 43.1344 32.4332 39.8184 32.4332 36.0142C32.4332 32.21 34.3017 29.1717 37.1297 27.3032C38.2912 26.5458 39.621 26.0071 41.0434 25.7546C41.6326 25.6536 42.2218 25.5947 42.8446 25.5947C43.4927 25.5947 44.1324 25.6537 44.7384 25.7631C46.1103 26.0156 47.3812 26.5373 48.509 27.2696C51.3707 29.1296 53.256 32.3446 53.256 36.0058C53.256 39.6669 51.2108 43.1513 48.1639 44.9608V52.0137C49.1403 51.6938 50.0914 51.2815 50.9835 50.7849L52.9446 52.7459H53.8284L59.5854 46.9891V46.097L57.6327 44.1528C58.2387 43.0755 58.71 41.914 59.0551 40.6937H61.8158C62.0683 40.4496 62.2114 40.3065 62.447 40.0625V31.9322C62.203 31.6798 62.0599 31.5451 61.8158 31.301V31.3094Z" fill="white"/>
<path d="M46.1696 56.5834V38.9848C48.0297 37.857 49.2753 35.8371 49.2753 33.5142C49.2753 31.4354 48.2822 29.5753 46.7419 28.397V32.6221L42.8871 34.844L39.0322 32.6221V28.3213C37.4415 29.4912 36.4062 31.3764 36.4062 33.5058C36.4062 35.8287 37.6519 37.8486 39.5036 38.9764V56.575C37.6435 57.7028 36.4062 59.7227 36.4062 62.0541C36.4062 65.5974 39.2763 68.4758 42.8366 68.4758C46.3968 68.4758 49.2669 65.6058 49.2669 62.0541C49.2669 59.7227 48.0128 57.7028 46.1612 56.575L46.1696 56.5834ZM42.3989 46.4165V39.8938C42.5504 39.8938 42.6851 39.9443 42.845 39.9443C43.0049 39.9443 43.1312 39.9022 43.2827 39.8938V55.6324H42.3989V46.4165ZM45.8245 63.7457L42.8955 65.4374L39.9665 63.7457V60.3624L42.8955 58.6791L45.8245 60.3624V63.7457Z" fill="white"/>
</svg>
