<svg width="85" height="85" viewBox="0 0 85 85" fill="none" xmlns="http://www.w3.org/2000/svg">
<rect x="3.26138" y="3.26431" width="78.3656" height="78.3656" fill="black" fill-opacity="0.2" stroke="#202020" stroke-width="1.63213"/>
<path d="M14.8588 82.4453H2.44531V70.0319" stroke="#414141" stroke-width="4.8964"/>
<path d="M70.0319 82.4453H82.4453V70.0319" stroke="#414141" stroke-width="4.8964"/>
<path d="M14.8588 2.44824H2.44531V14.8617" stroke="#414141" stroke-width="4.8964"/>
<path d="M70.0319 2.44824H82.4453V14.8617" stroke="#414141" stroke-width="4.8964"/>
<path d="M60.4375 42.858H58.233C57.3643 42.858 56.7556 42.6424 56.6076 42.283C56.4576 41.9216 56.7344 41.3404 57.3474 40.7274L58.9073 39.1654V38.5546L54.9716 34.6211H54.3608L52.8009 36.181C52.1225 36.8594 51.6659 36.9609 51.4567 36.9609C51.3003 36.9609 51.1777 36.9102 51.0678 36.8003C50.9515 36.6861 50.7803 36.4304 50.7084 35.8829L49.2627 38.1953C52.8559 39.0175 55.536 42.2323 55.536 46.0749C55.536 50.5368 51.9174 54.1554 47.4534 54.1554C44.915 54.1554 42.6491 52.9844 41.1675 51.1519L38.2422 55.8336L39.9352 57.5266H40.5482L42.108 55.9668C42.7865 55.2883 43.2409 55.1868 43.4523 55.1868C44.1794 55.1868 44.2407 56.455 44.2407 56.8439V59.0569L44.674 59.4902H50.235L50.6683 59.0569V56.9031C50.6704 56.8862 50.6725 56.8693 50.6725 56.8503C50.6725 55.8907 50.9198 55.4975 51.0678 55.3475C51.1777 55.2375 51.3003 55.1868 51.4567 55.1868C51.668 55.1868 52.1225 55.2883 52.8009 55.9668L54.3608 57.5266H54.9738L58.9073 53.5931V52.9802L57.3474 51.4203C56.7344 50.8074 56.4576 50.224 56.6076 49.8647C56.7556 49.5032 57.3643 49.2877 58.233 49.2877H60.4375L60.8687 48.8565V43.2913C60.7017 43.1222 60.6066 43.0271 60.4375 42.858Z" fill="white"/>
<path d="M47.4569 51.4656C50.4329 51.4656 52.8467 49.0518 52.8467 46.0758C52.8467 43.0998 50.5682 40.8234 47.7063 40.6924L42.7266 48.6629C43.6418 50.3348 45.4172 51.4677 47.4569 51.4677V51.4656Z" fill="white"/>
<path d="M23.4474 61.927C23.5785 62.4956 23.6524 62.8147 23.7835 63.3833L25.2165 64.2795C25.7851 64.1484 26.1043 64.0745 26.6728 63.9434L28.9323 60.327L25.7048 58.3105L23.4453 61.927H23.4474Z" fill="white"/>
<path d="M52.3833 22.8007C52.2523 22.2322 52.1783 21.913 52.0473 21.3444L50.6142 20.4482C50.0457 20.5793 49.7265 20.6533 49.1579 20.7843L46.8984 24.4008L50.1239 26.4172L52.3833 22.8007Z" fill="white"/>
<path d="M50.1257 28.413L45.1058 25.2764C43.6262 25.6188 42.7977 25.809 41.3202 26.1514L24.8359 52.5318C25.1762 54.0113 25.3686 54.8399 25.711 56.3173L30.7309 59.4539C32.2104 59.1115 33.039 58.9213 34.5164 58.5789L51.0007 32.1985C50.6583 30.719 50.4681 29.8904 50.1257 28.413ZM27.1736 52.8911L26.994 52.7791C26.9411 52.5508 26.9115 52.424 26.8587 52.1957L41.9057 28.1171C42.134 28.0643 42.2608 28.0347 42.4891 27.9818L42.6687 28.0939C42.7216 28.3221 42.7512 28.4489 42.804 28.6772L27.757 52.7558C27.5287 52.8087 27.4019 52.8382 27.1736 52.8911ZM30.0883 55.8903C29.8601 55.9432 29.7333 55.9728 29.505 56.0256L29.3253 55.9136C29.2725 55.6853 29.2429 55.5585 29.19 55.3302L45.7441 28.8378C45.9724 28.785 46.0992 28.7554 46.3275 28.7026L46.5071 28.8146C46.5599 29.0429 46.5895 29.1697 46.6424 29.398L30.0883 55.8903ZM33.9098 56.6005C33.6815 56.6534 33.5547 56.683 33.3264 56.7358L33.1468 56.6238C33.0939 56.3955 33.0644 56.2687 33.0115 56.0404L48.0585 31.9618C48.2868 31.909 48.4136 31.8794 48.6419 31.8265L48.8215 31.9386C48.8744 32.1668 48.904 32.2936 48.9568 32.5219L33.9098 56.6005Z" fill="white"/>
</svg>
