<svg width="85" height="85" viewBox="0 0 85 85" fill="none" xmlns="http://www.w3.org/2000/svg">
<rect x="3.26138" y="3.26431" width="78.3656" height="78.3656" fill="black" fill-opacity="0.2" stroke="#202020" stroke-width="1.63213"/>
<path d="M14.8588 82.4453H2.44531V70.0319" stroke="#414141" stroke-width="4.8964"/>
<path d="M70.0319 82.4453H82.4453V70.0319" stroke="#414141" stroke-width="4.8964"/>
<path d="M14.8588 2.44824H2.44531V14.8617" stroke="#414141" stroke-width="4.8964"/>
<path d="M70.0319 2.44824H82.4453V14.8617" stroke="#414141" stroke-width="4.8964"/>
<path d="M44.6478 57.8129H41.2116L25.3371 48.8252L21.4531 51.0235V54.2612L41.2116 65.4472H44.6478L64.4062 54.2612V51.0235L60.5222 48.8252L44.6478 57.8129Z" fill="white"/>
<path d="M44.6458 55.3597L64.4042 44.1737V40.936L60.504 38.7275L44.6438 47.7072C43.418 47.7072 42.4313 47.7072 41.2075 47.7072L41.1325 47.6646L38.2535 49.2956H37.5666L36.2942 48.5764V48.1711L39.1612 46.5482L35.8748 44.6883L32.9958 46.3193H32.3089L31.0365 45.6V45.1948L33.9034 43.5719L30.6171 41.712L27.7381 43.343H27.0512L25.7788 42.6237V42.2185L28.6457 40.5956L25.3533 38.7316L21.4531 40.94V44.1777L41.2116 55.3638H44.6478L44.6458 55.3597ZM41.554 51.1495L58.2327 41.7059H58.6906L60.0765 42.49V42.8952L43.6267 52.2091H42.7109L41.554 51.5547V51.1495Z" fill="white"/>
<path d="M44.2976 19.4482H41.5482L21.4453 30.8288V34.0665L41.2037 45.2525H44.64L64.3984 34.0665V30.8288L44.2956 19.4482H44.2976ZM29.7584 32.3909L29.6044 34.4413L28.2104 34.4069L28.4171 31.6311L33.3202 31.5136L33.379 32.3018L29.7584 32.3889V32.3909ZM36.0413 35.9467L35.8873 37.9971L34.4933 37.9627L34.702 35.1869L39.6031 35.0694L39.6619 35.8596L36.0413 35.9467ZM36.2905 28.6913L36.1365 30.7417L34.7425 30.7072L34.9512 27.9315L39.8523 27.814L39.9111 28.6021L36.2905 28.6892V28.6913ZM42.3242 39.5045L42.1702 41.5549L40.7762 41.5205L40.9829 38.7447L45.884 38.6272L45.9428 39.4154L42.3221 39.5025L42.3242 39.5045ZM42.5714 32.2491L42.4174 34.2995L41.0234 34.265L41.2321 31.4893L46.1332 31.3718L46.192 32.162L42.5714 32.2491ZM42.8206 24.9937L42.6666 27.0441L41.2726 27.0096L41.4793 24.2339L46.3824 24.1163L46.4412 24.9065L42.8185 24.9937H42.8206ZM48.8543 35.8069L48.7003 37.8573L47.3063 37.8229L47.513 35.0471L52.4161 34.9296L52.4749 35.7177L48.8543 35.8049V35.8069ZM49.1035 28.5515L48.9495 30.6019L47.5555 30.5674L47.7642 27.7917L52.6653 27.6742L52.7241 28.4643L49.1014 28.5515H49.1035ZM55.3864 32.1093L55.2324 34.1597L53.8384 34.1252L54.0451 31.3495L58.9482 31.232L59.007 32.0222L55.3844 32.1093H55.3864Z" fill="white"/>
</svg>
