<svg width="73" height="78" viewBox="0 0 73 78" fill="none" xmlns="http://www.w3.org/2000/svg">
<path d="M39.0977 64.6656H33.3054L6.54702 49.5156L0 53.2212V58.6787L33.3054 77.5343H39.0977L72.4031 58.6787V53.2212L65.8561 49.5156L39.0977 64.6656Z" fill="white"/>
<path d="M39.1021 60.5308L72.4075 41.6753V36.2177L65.8332 32.4951L39.0987 47.6315C37.0324 47.6315 35.3692 47.6315 33.3064 47.6315L33.18 47.5597L28.327 50.309H27.1692L25.0245 49.0966V48.4135L29.857 45.6779L24.3175 42.5427L19.4644 45.292H18.3067L16.1619 44.0796V43.3966L20.9945 40.6609L15.4549 37.5258L10.6019 40.275H9.44412L7.29935 39.0626V38.3796L12.1319 35.644L6.58215 32.5019L0.0078125 36.2246V41.6821L33.3132 60.5377H39.1055L39.1021 60.5308ZM33.8904 53.434L62.0047 37.5155H62.7765L65.1125 38.8372V39.5203L37.3842 55.2201H35.8405L33.8904 54.117V53.434Z" fill="white"/>
<path d="M38.5205 0H33.886L0 19.1834V24.641L33.3054 43.4965H39.0977L72.4031 24.641V19.1834L38.5171 0H38.5205ZM14.0127 21.8166L13.7532 25.2728L11.4035 25.2147L11.7518 20.5358L20.0167 20.3378L20.1158 21.6663L14.0127 21.8131V21.8166ZM24.6034 27.8103L24.3438 31.2665L21.9942 31.2085L22.3459 26.5296L30.6074 26.3315L30.7064 27.6634L24.6034 27.8103ZM25.0235 15.5803L24.7639 19.0365L22.4142 18.9785L22.766 14.2996L31.0275 14.1015L31.1265 15.4301L25.0235 15.5769V15.5803ZM35.1941 33.8075L34.9345 37.2637L32.5848 37.2056L32.9332 32.5267L41.1946 32.3287L41.2937 33.6572L35.1906 33.804L35.1941 33.8075ZM35.6107 21.5775L35.3512 25.0337L33.0015 24.9757L33.3532 20.2968L41.6147 20.0987L41.7138 21.4306L35.6107 21.5775ZM36.0308 9.34751L35.7712 12.8037L33.4216 12.7457L33.7699 8.0668L42.0348 7.86871L42.1338 9.20066L36.0274 9.34751H36.0308ZM46.2014 27.5746L45.9418 31.0309L43.5921 30.9728L43.9405 26.2939L52.2054 26.0958L52.3044 27.4244L46.2014 27.5712V27.5746ZM46.6215 15.3447L46.3619 18.8009L44.0122 18.7428L44.364 14.064L52.6254 13.8659L52.7245 15.1978L46.618 15.3447H46.6215ZM57.2121 21.3418L56.9526 24.7981L54.6029 24.74L54.9512 20.0611L63.2161 19.863L63.3152 21.195L57.2087 21.3418H57.2121Z" fill="white"/>
</svg>
