<svg width="25" height="25" viewBox="0 0 25 25" fill="none" xmlns="http://www.w3.org/2000/svg">
<path d="M12.2322 17.3473C15.0572 17.3473 17.3473 15.0572 17.3473 12.2322C17.3473 9.40728 15.0572 7.11719 12.2322 7.11719C9.40728 7.11719 7.11719 9.40728 7.11719 12.2322C7.11719 15.0572 9.40728 17.3473 12.2322 17.3473Z" fill="white"/>
<path d="M22.017 1.77915C21.65 1.77915 21.3498 2.07716 21.3498 2.44633C21.3498 2.81551 21.65 3.11351 22.017 3.11351C22.3839 3.11351 22.6842 2.81328 22.6842 2.44633C22.6842 2.07938 22.3862 1.77915 22.017 1.77915ZM22.017 1.77915C21.65 1.77915 21.3498 2.07716 21.3498 2.44633C21.3498 2.81551 21.65 3.11351 22.017 3.11351C22.3839 3.11351 22.6842 2.81328 22.6842 2.44633C22.6842 2.07938 22.3862 1.77915 22.017 1.77915ZM3.5583 0C2.17056 1.38996 1.38996 2.16834 0 3.5583V24.4633H20.905C22.295 23.0734 23.0756 22.295 24.4633 20.905V0H3.5583ZM7.56139 22.2394H2.22394V21.3498H7.56139V22.2394ZM12.2317 19.3483C8.30196 19.3483 5.11506 16.1614 5.11506 12.2317C5.11506 8.30196 8.30196 5.11506 12.2317 5.11506C16.1614 5.11506 19.3483 8.29974 19.3483 12.2317C19.3483 16.1636 16.1636 19.3483 12.2317 19.3483ZM22.017 3.78069C21.2809 3.78069 20.6826 3.18246 20.6826 2.44633C20.6826 1.71021 21.2809 1.11197 22.017 1.11197C22.7531 1.11197 23.3513 1.70798 23.3513 2.44633C23.3513 3.18468 22.7553 3.78069 22.017 3.78069ZM22.017 1.77915C21.65 1.77915 21.3498 2.07716 21.3498 2.44633C21.3498 2.81551 21.65 3.11351 22.017 3.11351C22.3839 3.11351 22.6842 2.81328 22.6842 2.44633C22.6842 2.07938 22.3862 1.77915 22.017 1.77915Z" fill="white"/>
<path d="M12.2322 17.3473C15.0572 17.3473 17.3473 15.0572 17.3473 12.2322C17.3473 9.40728 15.0572 7.11719 12.2322 7.11719C9.40728 7.11719 7.11719 9.40728 7.11719 12.2322C7.11719 15.0572 9.40728 17.3473 12.2322 17.3473Z" fill="white"/>
<path d="M12.2322 17.3473C15.0572 17.3473 17.3473 15.0572 17.3473 12.2322C17.3473 9.40728 15.0572 7.11719 12.2322 7.11719C9.40728 7.11719 7.11719 9.40728 7.11719 12.2322C7.11719 15.0572 9.40728 17.3473 12.2322 17.3473Z" fill="white"/>
<path d="M22.0187 3.11366C22.3872 3.11366 22.6859 2.81495 22.6859 2.44648C22.6859 2.078 22.3872 1.7793 22.0187 1.7793C21.6503 1.7793 21.3516 2.078 21.3516 2.44648C21.3516 2.81495 21.6503 3.11366 22.0187 3.11366Z" fill="white"/>
<path d="M22.0187 3.11366C22.3872 3.11366 22.6859 2.81495 22.6859 2.44648C22.6859 2.078 22.3872 1.7793 22.0187 1.7793C21.6503 1.7793 21.3516 2.078 21.3516 2.44648C21.3516 2.81495 21.6503 3.11366 22.0187 3.11366Z" fill="white"/>
</svg>
