<svg width="85" height="85" viewBox="0 0 85 85" fill="none" xmlns="http://www.w3.org/2000/svg">
<rect x="3.26138" y="3.26431" width="78.3656" height="78.3656" fill="black" fill-opacity="0.2" stroke="#202020" stroke-width="1.63213"/>
<path d="M14.8588 82.4453H2.44531V70.0319" stroke="#414141" stroke-width="4.8964"/>
<path d="M70.0319 82.4453H82.4453V70.0319" stroke="#414141" stroke-width="4.8964"/>
<path d="M14.8588 2.44824H2.44531V14.8617" stroke="#414141" stroke-width="4.8964"/>
<path d="M70.0319 2.44824H82.4453V14.8617" stroke="#414141" stroke-width="4.8964"/>
<path d="M25.0385 43.4873C24.7374 43.7885 24.5746 43.9512 24.2734 44.2524V45.0744C24.5746 45.3756 24.7374 45.5384 25.0385 45.8395H60.8113C61.1125 45.5384 61.2753 45.3756 61.5764 45.0744V44.2524C61.2753 43.9512 61.1125 43.7885 60.8113 43.4873H25.0385Z" fill="white"/>
<path d="M56.1225 31.4412C55.2353 30.554 54.1284 29.8378 52.9563 29.2436C52.6633 29.4308 52.5819 29.4797 52.2889 29.6587V36.6665C52.1098 36.8456 52.0121 36.9432 51.833 37.1223H51.1005C50.9214 36.9432 50.8238 36.8456 50.6447 36.6665V27.6565L48.8133 25.8252H37.0844C36.3681 26.5414 35.9693 26.9403 35.253 27.6565V36.6665C35.074 36.8456 34.9763 36.9432 34.7972 37.1223H34.0647C33.8856 36.9432 33.7879 36.8456 33.6089 36.6665V29.6506C33.3159 29.4715 33.2345 29.4146 32.9414 29.2355C31.7531 29.8378 30.638 30.554 29.7345 31.4493C27.3252 33.8585 25.7706 36.9595 25.2578 40.2803C25.8113 40.9314 26.0636 41.2407 26.6171 41.8837H59.2562C59.8097 41.2407 60.062 40.9314 60.6155 40.2803C60.1027 36.9595 58.5399 33.8585 56.1388 31.4493L56.1225 31.4412Z" fill="white"/>
<path d="M45.4516 47.4346H25.6646C25.1274 47.9718 24.8263 48.2729 24.2891 48.8101L25.3635 53.9296L33.1692 58.5119H37.7354C38.1586 58.2678 38.5005 58.0724 38.9237 57.8282L42.5377 51.5611H43.3353L46.9492 57.8282C47.3725 58.0724 47.7143 58.2678 48.1376 58.5119H52.7038L60.5095 53.9296L61.5839 48.8101C61.0467 48.2729 60.7455 47.9718 60.2083 47.4346H45.4516Z" fill="white"/>
<path d="M22.9106 49.3623L21.4453 49.6719L22.4532 54.4419L23.9185 54.1323L22.9106 49.3623Z" fill="white"/>
<path d="M62.9766 49.3901L61.9688 54.1602L63.4341 54.4697L64.4419 49.6997L62.9766 49.3901Z" fill="white"/>
</svg>
