<svg width="85" height="85" viewBox="0 0 85 85" fill="none" xmlns="http://www.w3.org/2000/svg">
<rect x="3.26138" y="3.26431" width="78.3656" height="78.3656" fill="black" fill-opacity="0.2" stroke="#202020" stroke-width="1.63213"/>
<path d="M14.8588 82.4453H2.44531V70.0319" stroke="#414141" stroke-width="4.8964"/>
<path d="M70.0319 82.4453H82.4453V70.0319" stroke="#414141" stroke-width="4.8964"/>
<path d="M14.8588 2.44824H2.44531V14.8617" stroke="#414141" stroke-width="4.8964"/>
<path d="M70.0319 2.44824H82.4453V14.8617" stroke="#414141" stroke-width="4.8964"/>
<path d="M49.5336 30.5859H34.5547V36.2772H49.5336V30.5859Z" fill="white"/>
<path d="M62.3799 25.4885H53.4589C52.6349 25.4885 51.968 24.8216 51.968 23.9941C51.968 23.1666 52.6349 22.5032 53.4589 22.5032H60.4631L58.3891 19.2734H25.7078L23.6338 22.5032H30.6379C31.4619 22.5032 32.1323 23.17 32.1323 23.9941C32.1323 24.8181 31.4654 25.4885 30.6379 25.4885H21.7169L18.4453 30.5862H65.6516L62.3799 25.4885Z" fill="white"/>
<path d="M34.5595 38.0234L32.1328 54.5736L41.4204 65.2229H42.6774L51.965 54.5736L49.5384 38.0234H34.5595ZM46.6578 56.7663H43.8122V58.1978H40.2857V56.7663H37.44V54.4967L37.7892 52.1329H46.3087L46.6578 54.4967V56.7663Z" fill="white"/>
</svg>
