<svg width="65" height="83" viewBox="0 0 65 83" fill="none" xmlns="http://www.w3.org/2000/svg">
<path d="M64.0205 30.8185L58.6527 36.5862L50.7164 34.7598L48.3293 26.972L53.6023 21.3073C50.0773 20.9651 46.4369 22.2102 43.8355 25.0013C40.9248 28.1305 40.0384 32.4223 41.1268 36.2523L32.1145 45.9325L23.1021 36.2523C24.1906 32.4182 23.3083 28.1305 20.3935 25.0013C17.792 22.2102 14.1516 20.9651 10.6267 21.3073L15.8997 26.972L13.5126 34.7598L5.57632 36.5862L0.208489 30.8185C-0.467643 34.3764 0.49708 38.1982 3.15626 41.0512C6.07104 44.1803 10.2845 45.3677 14.1846 44.5555L23.7907 54.8748L8.14891 71.6791L8.16953 71.6998C8.02111 71.8358 7.87269 71.9759 7.73252 72.1244C5.44027 74.5857 5.57632 78.4404 8.04172 80.7327C10.503 83.0249 14.3578 82.8889 16.65 80.4235C16.7902 80.2751 16.9221 80.1184 17.0458 79.9576L17.0664 79.9782L32.1145 63.8129L47.1625 79.9782L47.1832 79.9576C47.3068 80.1184 47.4388 80.2709 47.5789 80.4235C49.8712 82.8848 53.726 83.0249 56.1873 80.7327C58.6485 78.4404 58.7887 74.5857 56.4965 72.1244C56.3563 71.9759 56.212 71.8317 56.0595 71.6998L56.0801 71.6791L40.4383 54.8748L50.0444 44.5555C53.9445 45.3677 58.1621 44.1803 61.0727 41.0512C63.7278 38.1982 64.6966 34.3764 64.0205 30.8185ZM19.1814 42.1767C19.3917 42.0077 19.5978 41.8304 19.7957 41.6449C19.9977 41.4593 20.1832 41.2656 20.3688 41.0677L28.503 49.8038L27.3939 50.9952L19.1814 42.1726V42.1767ZM32.1145 53.6792L33.2235 54.8706L32.1145 56.0621L31.0055 54.8706L32.1145 53.6792ZM14.601 77.6819L13.0962 79.298L9.9753 78.5806L9.03531 75.5216L10.5401 73.9054L11.2162 73.1798L14.3372 73.8972L15.2772 76.9604L14.601 77.686V77.6819ZM16.9345 72.3676L15.7472 71.2627L27.3981 58.7502L28.5071 59.9417L16.9345 72.3718V72.3676ZM49.8877 73.893L53.0086 73.1757L53.6847 73.9013L55.1895 75.5174L54.2496 78.5765L51.1286 79.2938L49.6238 77.6778L48.9477 76.9521L49.8877 73.8889V73.893ZM48.4777 71.2586L47.2904 72.3635L35.7178 59.9334L36.8268 58.7419L48.4777 71.2545V71.2586ZM36.8268 50.9994L35.7178 49.8079L43.852 41.0718C44.0375 41.2697 44.2271 41.4635 44.425 41.649C44.6229 41.8345 44.8332 42.0118 45.0393 42.1808L36.8268 51.0035V50.9994Z" fill="white"/>
<path d="M16.866 19.0442H47.362C47.6177 18.7886 47.7578 18.6485 48.0093 18.397V17.6961L47.362 17.0488H16.866L16.2188 17.6961V18.397L16.866 19.0442Z" fill="white"/>
<path d="M46.022 14.3472C46.492 13.7948 46.7105 13.535 47.1805 12.9784C46.7435 10.142 45.416 7.49928 43.3629 5.44614C41.1984 3.2817 38.3785 1.92122 35.3688 1.56254C35.0184 1.87587 34.8411 2.02842 34.4907 2.34175V8.49287C34.3382 8.64541 34.2516 8.73202 34.099 8.88456H33.5136C33.3611 8.73202 33.2745 8.64541 33.1219 8.49287V0.64725L32.4747 0H31.7738L31.1265 0.64725V8.49287C30.974 8.64541 30.8874 8.73202 30.7349 8.88456H30.1494C29.9969 8.73202 29.9103 8.64541 29.7578 8.49287V2.33762C29.4073 2.02429 29.2301 1.87174 28.8796 1.55841C25.8576 1.91297 23.0253 3.27757 20.8526 5.44202C18.8036 7.49515 17.4761 10.1378 17.0391 12.9743C17.5091 13.5267 17.7276 13.7865 18.1976 14.3431H46.022V14.3472Z" fill="white"/>
</svg>
