<svg width="85" height="85" viewBox="0 0 85 85" fill="none" xmlns="http://www.w3.org/2000/svg">
<rect x="3.26138" y="3.26431" width="78.3656" height="78.3656" fill="black" fill-opacity="0.2" stroke="#202020" stroke-width="1.63213"/>
<path d="M14.8588 82.4453H2.44531V70.0319" stroke="#414141" stroke-width="4.8964"/>
<path d="M70.0319 82.4453H82.4453V70.0319" stroke="#414141" stroke-width="4.8964"/>
<path d="M14.8588 2.44824H2.44531V14.8617" stroke="#414141" stroke-width="4.8964"/>
<path d="M70.0319 2.44824H82.4453V14.8617" stroke="#414141" stroke-width="4.8964"/>
<path d="M70.4484 43.2014H63.9808L62.9907 33.706H60.8751L59.885 43.2014H56.1397V35.141H28.9572V43.2014H25.2201L24.2218 33.624H22.1062L21.1079 43.2014H14.6484V46.8299H21.112L22.1062 56.3663H24.2218L25.216 46.8299H59.8727L60.8751 56.4483H62.9907L63.9931 46.8299H70.4484V43.2014ZM52.5727 40.7066C52.9889 40.7066 53.3271 41.0449 53.3271 41.459C53.3271 41.8731 52.9889 42.2134 52.5727 42.2134C52.1566 42.2134 51.8204 41.8751 51.8204 41.459C51.8204 41.0428 52.1566 40.7066 52.5727 40.7066ZM42.5484 40.7066C42.9646 40.7066 43.3028 41.0449 43.3028 41.459C43.3028 41.8731 42.9646 42.2134 42.5484 42.2134C42.1323 42.2134 41.7961 41.8751 41.7961 41.459C41.7961 41.0428 42.1323 40.7066 42.5484 40.7066ZM32.5241 40.7066C32.9403 40.7066 33.2785 41.0449 33.2785 41.459C33.2785 41.8731 32.9403 42.2134 32.5241 42.2134C32.108 42.2134 31.7697 41.8751 31.7697 41.459C31.7697 41.0428 32.108 40.7066 32.5241 40.7066Z" fill="white"/>
<path d="M56.1356 31.773C55.0102 30.6455 54.3788 30.0141 53.2513 28.8887H31.8374C30.7099 30.0141 30.0786 30.6455 28.9531 31.773V33.6241H56.1356V31.773Z" fill="white"/>
</svg>
