<svg width="85" height="85" viewBox="0 0 85 85" fill="none" xmlns="http://www.w3.org/2000/svg">
<rect x="3.26138" y="3.26431" width="78.3656" height="78.3656" fill="black" fill-opacity="0.2" stroke="#202020" stroke-width="1.63213"/>
<path d="M14.8588 82.4453H2.44531V70.0319" stroke="#414141" stroke-width="4.8964"/>
<path d="M70.0319 82.4453H82.4453V70.0319" stroke="#414141" stroke-width="4.8964"/>
<path d="M14.8588 2.44824H2.44531V14.8617" stroke="#414141" stroke-width="4.8964"/>
<path d="M70.0319 2.44824H82.4453V14.8617" stroke="#414141" stroke-width="4.8964"/>
<path d="M27.5531 35.0723H31.2908V51.9823H27.5531C26.3936 50.8228 25.744 50.1731 24.5859 49.0151V38.0394L27.5531 35.0723Z" fill="white"/>
<path d="M38.191 35.0723H33.0156V51.9823H38.191V35.0723Z" fill="white"/>
<path d="M39.9219 35.0722L45.0987 35.0693V51.9822H39.9219V35.0722Z" fill="white"/>
<path d="M51.9879 35.0693H46.8125V51.9822H51.9879V35.0693Z" fill="white"/>
<path d="M60.4236 38.0394V49.0151L57.4565 51.9822H53.7188V35.0693H57.4565C58.6159 36.2317 59.2656 36.8814 60.4236 38.0394Z" fill="white"/>
<path d="M66.7854 47.7349L68.4474 27.3975H62.1562L63.8183 47.7349H66.7854Z" fill="white"/>
<path d="M21.1917 47.7349L22.8537 27.3975H16.5625L18.2245 47.7349H21.1917Z" fill="white"/>
</svg>
