<svg width="85" height="85" viewBox="0 0 85 85" fill="none" xmlns="http://www.w3.org/2000/svg">
<rect x="3.26138" y="3.26431" width="78.3656" height="78.3656" fill="black" fill-opacity="0.2" stroke="#202020" stroke-width="1.63213"/>
<path d="M14.8588 82.4453H2.44531V70.0319" stroke="#414141" stroke-width="4.8964"/>
<path d="M70.0319 82.4453H82.4453V70.0319" stroke="#414141" stroke-width="4.8964"/>
<path d="M14.8588 2.44824H2.44531V14.8617" stroke="#414141" stroke-width="4.8964"/>
<path d="M70.0319 2.44824H82.4453V14.8617" stroke="#414141" stroke-width="4.8964"/>
<path d="M66.4466 19.6079V64.9989V66.7984L53.5389 60.1773H32.0818L19.1657 66.3786V19.8487C19.1641 19.3302 19.1641 17.6963 19.1641 17.6963L32.0801 24.1685H53.5338L66.4298 17.6996L66.4466 19.6079ZM24.7432 27.2675L24.7516 23.5865L21.9353 22.1733V26.3477L24.7432 27.2675ZM63.6837 26.3276L63.672 22.175L60.8607 23.5882L60.8657 27.2859L63.6837 26.3276ZM30.3358 29.1573L30.3391 26.3962L27.5295 24.9897L27.5245 28.2174L30.3358 29.1573ZM55.2782 29.159L58.0878 28.2258L58.0795 24.983L55.2648 26.4229L55.2782 29.159ZM37.7262 26.9364H33.1087V29.7076H37.7262V26.9364ZM45.1132 26.9364H40.4957V29.7076H45.1132V26.9364ZM52.502 26.9364H47.8844V29.7076H52.502V26.9364ZM24.7449 34.0475L24.7499 30.211L21.9386 29.2627L21.9302 33.5826L24.7449 34.0475ZM60.8707 34.0558L63.677 33.5859L63.6737 29.261L60.8557 30.2177L60.8707 34.0542V34.0558ZM30.3358 34.9857L30.3391 32.0874L27.5245 31.1425V34.5225L30.3358 34.9857ZM58.0895 34.5191L58.0811 31.1475L55.2698 32.0908V35.0008L58.0895 34.5191ZM37.7262 32.4771H33.1087V35.2483H37.7262V32.4771ZM45.1132 32.4771H40.4957V35.2483H45.1132V32.4771ZM52.502 32.4771H47.8844V35.2483H52.502V32.4771ZM24.7499 40.784V36.8638L21.9353 36.3889V40.789L24.7499 40.784ZM60.8657 40.789H63.6754V36.3922L60.859 36.8688L60.8674 40.789H60.8657ZM30.3391 40.7856V37.8037L27.5245 37.3321V40.7907L30.3391 40.7873V40.7856ZM58.0878 40.784L58.0845 37.3338L55.2715 37.8054V40.789L58.0878 40.784ZM37.7262 38.0178H33.1087V40.789H37.7262V38.0178ZM45.1132 38.0178H40.4957V40.789H45.1132V38.0178ZM52.502 38.0178H47.8844V40.789H52.502V38.0178ZM24.7533 47.4753L24.7466 43.5568H21.9336V47.9603L24.7516 47.4753H24.7533ZM30.3425 46.5371L30.3375 43.5568H27.5245V47.0204L30.3425 46.5371ZM37.7262 43.5585H33.1087V46.3297H37.7262V43.5585ZM45.1132 43.5585H40.4957V46.3297H45.1132V43.5585ZM52.502 43.5585H47.8844V46.3297H52.502V43.5585ZM58.0845 47.0037V43.5568H55.2681L55.2765 46.5471L58.0845 47.002V47.0037ZM63.6737 47.9469V43.5585H60.8624V47.4803L63.6737 47.9452V47.9469ZM37.7262 49.0992H33.1087V51.8704H37.7262V49.0992ZM45.1132 49.0992H40.4957V51.8704H45.1132V49.0992ZM52.502 49.0992H47.8844V51.8704H52.502V49.0992ZM30.3442 52.2517L30.3341 49.3534L27.5228 49.8284V53.205L30.3425 52.2517H30.3442ZM58.0811 53.1933L58.0862 49.825L55.2732 49.3484V52.2584L58.0828 53.1916L58.0811 53.1933ZM24.7583 54.1265L24.7432 50.295L21.9319 50.7666L21.9419 55.0865L24.7583 54.1265ZM63.6737 55.0798L63.677 50.7582L60.859 50.3L60.8657 54.1415L63.672 55.0798H63.6737ZM37.7262 54.6399H33.1087V57.4111H37.7262V54.6399ZM45.1132 54.6399H40.4957V57.4111H45.1132V54.6399ZM52.502 54.6399H47.8844V57.4111H52.502V54.6399ZM30.3425 57.9446V55.1835L27.5245 56.1317L27.5312 59.3662L30.3425 57.9446ZM58.0728 59.3428L58.0878 56.12L55.2681 55.1818L55.2732 57.9396L58.0728 59.3428ZM24.7566 60.7509L24.7432 57.0699L21.9353 58.0031V62.1758L24.7566 60.7509ZM63.6754 62.1708V58.0015L60.864 57.0666L60.8607 60.7576L63.6754 62.1708Z" fill="white"/>
</svg>
