<svg width="31" height="30" viewBox="0 0 31 30" fill="none" xmlns="http://www.w3.org/2000/svg">
<path d="M15.3702 0C6.91684 0 0.03125 6.73729 0.03125 15C0.03125 23.2627 6.91684 30 15.3702 30C23.8236 30 30.7092 23.2627 30.7092 15C30.7092 6.73729 23.8236 0 15.3702 0Z" fill="#616668"/>
<path d="M14.3287 28.1583C7.06171 28.1583 1.17188 22.2685 1.17188 15.0015C1.17188 7.73456 7.06171 1.84473 14.3287 1.84473C21.5956 1.84473 27.4854 7.73456 27.4854 15.0015C27.4854 22.2685 21.5956 28.1583 14.3287 28.1583Z" fill="url(#paint0_linear_1870_45454)"/>
<path d="M14.322 29.3228C6.44068 29.3228 0 22.9033 0 15.0007C0 7.0982 6.41949 0.678711 14.322 0.678711C22.2246 0.678711 28.6441 7.0982 28.6441 15.0007C28.6441 22.9033 22.2246 29.3228 14.322 29.3228ZM14.322 3.00922C7.71187 3.00922 2.33051 8.39058 2.33051 15.0007C2.33051 21.6109 7.71187 26.9923 14.322 26.9923C20.9322 26.9923 26.3136 21.6109 26.3136 15.0007C26.3136 8.39058 20.9322 3.00922 14.322 3.00922Z" fill="url(#paint1_linear_1870_45454)"/>
<path d="M26.2811 14.999C24.2896 14.554 22.2981 14.3422 20.3065 14.1727C18.654 14.0456 17.0015 13.982 15.3701 13.9608C15.3701 12.3083 15.2854 10.6557 15.1582 9.02438C14.9887 7.03286 14.7769 5.04133 14.332 3.0498C13.887 5.04133 13.6752 7.03286 13.5057 9.02438C13.3786 10.6769 13.315 12.3295 13.2938 13.9608C11.6413 13.9608 9.98874 14.0456 8.35739 14.1727C6.36586 14.3422 4.37434 14.554 2.38281 14.999C4.37434 15.4439 6.36586 15.6557 8.35739 15.8252C10.0099 15.9523 11.6625 16.0159 13.2938 16.0371C13.2938 17.6896 13.3786 19.3422 13.5057 20.9735C13.6752 22.9651 13.887 24.9566 14.332 26.9481C14.7769 24.9566 14.9887 22.9651 15.1582 20.9735C15.2854 19.321 15.3489 17.6684 15.3701 16.0371C17.0226 16.0159 18.6752 15.9523 20.3065 15.8252C22.2981 15.6557 24.2896 15.4439 26.2811 14.999Z" fill="url(#paint2_linear_1870_45454)"/>
<path d="M15.3369 14.2554H15.0614V13.9588C15.0403 12.1368 14.9767 10.5266 14.8496 9.04358C14.7436 7.68765 14.5742 6.14104 14.3199 4.57324C14.0445 6.14104 13.8962 7.68765 13.7903 9.04358C13.6843 10.5266 13.5996 12.1368 13.5784 13.9588V14.2343H13.2818C11.4597 14.2554 9.84958 14.319 8.34534 14.4461C6.98941 14.5521 5.4428 14.7004 3.875 14.9758C5.46398 15.2512 6.98941 15.3995 8.34534 15.5054C9.84958 15.6114 11.4597 15.6961 13.2606 15.7173H13.536V16.0139C13.5572 17.836 13.6208 19.4461 13.7479 20.9292C13.8538 22.2851 14.0021 23.8317 14.2775 25.3995C14.553 23.8105 14.7013 22.2851 14.8072 20.9292C14.9131 19.4249 14.9979 17.8148 15.0191 16.0139V15.7385H15.2945C17.1165 15.7173 18.7267 15.6538 20.2309 15.5266C21.5869 15.4207 23.1335 15.2512 24.7013 14.997C23.1335 14.7215 21.5869 14.5732 20.2309 14.4673C18.7479 14.3614 17.1377 14.2766 15.3157 14.2554H15.3369Z" fill="#73777A"/>
<defs>
<linearGradient id="paint0_linear_1870_45454" x1="1.17187" y1="15.0015" x2="27.4854" y2="15.0015" gradientUnits="userSpaceOnUse">
<stop stop-color="#727679"/>
<stop offset="0.51" stop-color="#94999D"/>
<stop offset="1" stop-color="#B2B7BD"/>
</linearGradient>
<linearGradient id="paint1_linear_1870_45454" x1="0.0211864" y1="15.0007" x2="28.6441" y2="15.0007" gradientUnits="userSpaceOnUse">
<stop stop-color="#B2B7BD"/>
<stop offset="0.49" stop-color="#94999D"/>
<stop offset="1" stop-color="#727679"/>
</linearGradient>
<linearGradient id="paint2_linear_1870_45454" x1="2.38281" y1="14.999" x2="26.2811" y2="14.999" gradientUnits="userSpaceOnUse">
<stop stop-color="#B2B7BD"/>
<stop offset="0.49" stop-color="#94999D"/>
<stop offset="1" stop-color="#727679"/>
</linearGradient>
</defs>
</svg>
