<svg width="85" height="85" viewBox="0 0 85 85" fill="none" xmlns="http://www.w3.org/2000/svg">
<rect x="3.26138" y="3.26431" width="78.3656" height="78.3656" fill="black" fill-opacity="0.2" stroke="#202020" stroke-width="1.63213"/>
<path d="M14.8588 82.4453H2.44531V70.0319" stroke="#414141" stroke-width="4.8964"/>
<path d="M70.0319 82.4453H82.4453V70.0319" stroke="#414141" stroke-width="4.8964"/>
<path d="M14.8588 2.44824H2.44531V14.8617" stroke="#414141" stroke-width="4.8964"/>
<path d="M70.0319 2.44824H82.4453V14.8617" stroke="#414141" stroke-width="4.8964"/>
<path d="M64.448 58.6761L60.3238 62.8003L34.6693 62.6846C34.4324 62.5072 34.276 62.3408 34.3729 62.0224C34.4247 61.8549 35.6533 60.7971 35.9045 60.4963C37.0526 59.1223 37.7126 57.3285 37.8856 55.5501L37.8823 28.6594C37.8636 28.255 38.1049 28.0214 38.5005 28.0401L60.3436 28.0522L64.2717 31.9803L64.448 58.6761Z" fill="white"/>
<path d="M35.1556 50.0262C30.6446 44.5842 21.8022 47.4666 21.3802 54.4744C21.1389 58.4929 24.2759 62.2921 28.312 62.6843C28.7208 62.724 29.4689 62.7229 29.8799 62.6843C35.95 62.1235 39.0749 54.7554 35.1556 50.0262ZM29.3422 57.5695C25.9199 57.8174 25.4725 52.717 28.7891 52.3159C32.4043 51.8773 32.8362 57.315 29.3422 57.5695Z" fill="white"/>
<path d="M28.3807 20.4811C32.7727 20.0855 36.519 23.3117 36.8958 27.6696V49.1216C36.6115 50.6785 35.3731 48.7579 34.832 48.2919C31.5937 45.502 26.7488 45.4965 23.4929 48.2544C23.1998 48.5023 22.2753 49.602 22.1078 49.6758C21.7927 49.8135 21.5018 49.6868 21.4048 49.3485L21.3828 27.6696C21.6605 23.9596 24.6531 20.816 28.3807 20.4811Z" fill="white"/>
</svg>
