<svg width="85" height="85" viewBox="0 0 85 85" fill="none" xmlns="http://www.w3.org/2000/svg">
<rect x="3.26138" y="3.26431" width="78.3656" height="78.3656" fill="black" fill-opacity="0.2" stroke="#202020" stroke-width="1.63213"/>
<path d="M14.8588 82.4453H2.44531V70.0319" stroke="#414141" stroke-width="4.8964"/>
<path d="M70.0319 82.4453H82.4453V70.0319" stroke="#414141" stroke-width="4.8964"/>
<path d="M14.8588 2.44824H2.44531V14.8617" stroke="#414141" stroke-width="4.8964"/>
<path d="M70.0319 2.44824H82.4453V14.8617" stroke="#414141" stroke-width="4.8964"/>
<g clip-path="url(#clip0_2145_54438)">
<path d="M54.4607 62.4478H31.4375C31.8448 60.0086 33.7589 58.3643 36.2669 58.1945C40.8184 57.8866 45.7895 58.3882 50.3805 58.2595C52.5289 58.6722 54.1337 60.3523 54.4607 62.4464V62.4478Z" fill="white"/>
<path d="M66.447 23.167C66.2059 30.1341 62.3069 36.6368 56.3672 40.419C56.7527 39.563 57.2922 38.7907 57.7091 37.9453C58.0483 37.2579 58.3303 36.1856 58.7022 35.5951C59.0469 35.0483 59.8493 34.3118 60.292 33.6934C61.5617 31.9204 63.3327 28.4766 63.4976 26.3307C63.6174 24.7674 60.7947 25.6513 59.7716 25.4243L59.5005 23.167H66.4483H66.447Z" fill="white"/>
<path d="M26.3931 23.167L26.1207 25.4243C26.0049 25.5385 23.3279 25.3023 22.8102 25.4509C21.9465 25.6977 22.8525 28.251 23.0609 28.8694C23.58 30.4115 24.4627 32.1473 25.4082 33.4837C25.9054 34.1857 26.7964 34.97 27.1901 35.5964C27.562 36.1869 27.844 37.2605 28.1832 37.9466C28.6001 38.792 29.1396 39.5643 29.5251 40.4203C23.5881 36.6355 19.6824 30.1368 19.4453 23.167H26.3931Z" fill="white"/>
<path d="M48.736 53.5566H37.1562V56.7416H48.736V53.5566Z" fill="white"/>
<path d="M44.3765 47.9834V52.23H41.5156V47.9834C42.4379 48.1917 43.4583 48.1917 44.3765 47.9834Z" fill="white"/>
<path d="M57.4609 21.5029C60.2045 29.6352 57.1967 40.8956 49.125 45.1104C42.9265 48.347 36.2034 46.2922 31.9844 41.1445C27.4792 35.6465 26.5185 28.1672 28.3086 21.4482L57.4609 21.5029ZM39.3291 35.6016C39.2282 35.7095 39.151 35.8375 39.1025 35.9766C39.0541 36.1154 39.0358 36.2627 39.0479 36.4092C39.0698 36.617 39.15 36.815 39.2803 36.9795C39.4106 37.144 39.5855 37.2691 39.7842 37.3398C40.4668 37.6495 41.194 37.8523 41.9395 37.9414L41.6777 36.4482C40.8454 36.3253 40.0463 36.0373 39.3291 35.6016ZM46.8877 30.5654C39.6019 32.0091 38.2713 33.6683 38.4736 34.7549H38.4785L38.7656 36.2627C38.7458 36.0385 38.7942 35.8131 38.9043 35.6162C39.3842 34.794 41.1595 33.8154 45.8994 32.9443L46.8877 30.5654ZM48.7812 25.9844C39.2403 28.2065 37.6978 30.6292 37.9746 32.127H37.9453L38.291 33.9277C38.2601 33.6374 38.3115 33.3441 38.4395 33.0811C39.0082 31.9456 41.2082 30.5069 47.4512 29.2002L48.7812 25.9844Z" fill="white"/>
</g>
<defs>
<clipPath id="clip0_2145_54438">
<rect width="47" height="41" fill="white" transform="translate(19.4453 21.4482)"/>
</clipPath>
</defs>
</svg>
