<svg width="85" height="85" viewBox="0 0 85 85" fill="none" xmlns="http://www.w3.org/2000/svg">
<rect x="3.26138" y="3.26431" width="78.3656" height="78.3656" fill="black" fill-opacity="0.2" stroke="#202020" stroke-width="1.63213"/>
<path d="M14.8588 82.4453H2.44531V70.0319" stroke="#414141" stroke-width="4.8964"/>
<path d="M70.0319 82.4453H82.4453V70.0319" stroke="#414141" stroke-width="4.8964"/>
<path d="M14.8588 2.44824H2.44531V14.8617" stroke="#414141" stroke-width="4.8964"/>
<path d="M70.0319 2.44824H82.4453V14.8617" stroke="#414141" stroke-width="4.8964"/>
<path d="M45.0795 20.4805C44.7316 20.1326 44.5307 19.9317 44.1791 19.5782H43.42V15.4482H40.5737V19.5782H39.8147C39.4631 19.9317 39.2622 20.1326 38.9143 20.4805H22.5469V64.2676H61.4469V20.4805H45.0795ZM41.9969 44.5256C45.0479 44.5256 47.5221 46.9998 47.5221 50.0508C47.5221 53.1018 45.0479 55.5761 41.9969 55.5761C38.9459 55.5761 36.4716 53.1018 36.4716 50.0508C36.4716 46.9998 38.9459 44.5256 41.9969 44.5256ZM25.7188 59.8065C25.1383 59.8065 24.6677 59.3358 24.6677 58.7554C24.6677 58.175 25.1383 57.7043 25.7188 57.7043C26.2992 57.7043 26.7699 58.175 26.7699 58.7554C26.7699 59.3358 26.2992 59.8065 25.7188 59.8065ZM25.7188 43.4242C25.1383 43.4242 24.6677 42.9536 24.6677 42.3731C24.6677 41.7927 25.1383 41.3239 25.7188 41.3239C26.2992 41.3239 26.7699 41.7927 26.7699 42.3731C26.7699 42.9536 26.2992 43.4242 25.7188 43.4242ZM25.7188 27.0438C25.1383 27.0438 24.6677 26.5732 24.6677 25.9927C24.6677 25.4123 25.1383 24.9416 25.7188 24.9416C26.2992 24.9416 26.7699 25.4123 26.7699 25.9927C26.7699 26.5732 26.2992 27.0438 25.7188 27.0438ZM55.1998 61.4771H28.7344V23.271H38.9868C39.2919 23.5743 39.4891 23.7715 39.8147 24.0989H40.5737V37.633H36.6949V41.7071H33.6532V44.8046H32.3881C31.6607 45.532 31.2552 45.9394 30.5278 46.665V53.4367C31.2552 54.1641 31.6607 54.5715 32.3881 55.297H33.6532V58.3945H50.3406V55.297H51.6056C52.333 54.5715 52.7386 54.1641 53.4659 53.4367V46.665C52.7386 45.9394 52.333 45.532 51.6056 44.8046H50.3406V41.7071H47.2989V37.633H43.42V24.0989H44.1791C44.5046 23.7715 44.7018 23.5743 45.0069 23.271H55.1998V61.4771ZM58.2973 59.8065C57.7169 59.8065 57.2462 59.3358 57.2462 58.7554C57.2462 58.175 57.7169 57.7043 58.2973 57.7043C58.8777 57.7043 59.3484 58.175 59.3484 58.7554C59.3484 59.3358 58.8777 59.8065 58.2973 59.8065ZM58.2973 43.4242C57.7169 43.4242 57.2462 42.9536 57.2462 42.3731C57.2462 41.7927 57.7169 41.3239 58.2973 41.3239C58.8777 41.3239 59.3484 41.7927 59.3484 42.3731C59.3484 42.9536 58.8777 43.4242 58.2973 43.4242ZM58.2973 27.0438C57.7169 27.0438 57.2462 26.5732 57.2462 25.9927C57.2462 25.4123 57.7169 24.9416 58.2973 24.9416C58.8777 24.9416 59.3484 25.4123 59.3484 25.9927C59.3484 26.5732 58.8777 27.0438 58.2973 27.0438Z" fill="white"/>
<path d="M41.9959 53.1481C43.7075 53.1481 45.0934 51.7621 45.0934 50.0506C45.0934 48.3391 43.7075 46.9531 41.9959 46.9531C40.2844 46.9531 38.8984 48.3391 38.8984 50.0506C38.8984 51.7621 40.2844 53.1481 41.9959 53.1481Z" fill="white"/>
</svg>
