<svg width="85" height="85" viewBox="0 0 85 85" fill="none" xmlns="http://www.w3.org/2000/svg">
<rect x="3.26138" y="3.26431" width="78.3656" height="78.3656" fill="black" fill-opacity="0.2" stroke="#202020" stroke-width="1.63213"/>
<path d="M14.8588 82.4453H2.44531V70.0319" stroke="#414141" stroke-width="4.8964"/>
<path d="M70.0319 82.4453H82.4453V70.0319" stroke="#414141" stroke-width="4.8964"/>
<path d="M14.8588 2.44824H2.44531V14.8617" stroke="#414141" stroke-width="4.8964"/>
<path d="M70.0319 2.44824H82.4453V14.8617" stroke="#414141" stroke-width="4.8964"/>
<path d="M28.4472 61.0835C28.5666 61.655 28.6341 61.9759 28.7535 62.5474L30.0593 63.4482C30.5774 63.3165 30.8683 63.2422 31.3864 63.1104L33.4453 59.4752L30.5042 57.4482L28.4453 61.0835H28.4472Z" fill="white"/>
<path d="M57.4453 22.813C57.3259 22.2414 57.2584 21.9206 57.1389 21.3491L55.8326 20.4482C55.3143 20.58 55.0233 20.6543 54.505 20.7861L52.4453 24.4213L55.3856 26.4482L57.4453 22.813Z" fill="white"/>
<path d="M54.6092 28.5686L49.8128 25.4482C48.3991 25.7889 47.6074 25.9781 46.1958 26.3187L30.4453 52.562C30.7705 54.0339 30.9542 54.8581 31.2814 56.3279L36.0778 59.4482C37.4915 59.1076 38.2832 58.9184 39.6949 58.5777L55.4453 32.3345C55.1181 30.8626 54.9364 30.0383 54.6092 28.5686ZM32.6789 52.9195L32.5073 52.808C32.4568 52.581 32.4285 52.4548 32.378 52.2277L46.7552 28.2742C46.9733 28.2216 47.0945 28.1922 47.3126 28.1396L47.4842 28.2511C47.5347 28.4782 47.563 28.6043 47.6135 28.8314L33.2363 52.7849C33.0182 52.8375 32.897 52.8669 32.6789 52.9195ZM35.4639 55.9031C35.2458 55.9557 35.1246 55.9852 34.9065 56.0377L34.7348 55.9263C34.6844 55.6992 34.6561 55.573 34.6056 55.346L50.4227 28.9912C50.6408 28.9387 50.762 28.9092 50.9801 28.8567L51.1517 28.9681C51.2022 29.1952 51.2305 29.3213 51.281 29.5484L35.4639 55.9031ZM39.1152 56.6097C38.8971 56.6622 38.776 56.6916 38.5578 56.7442L38.3862 56.6328C38.3357 56.4057 38.3074 56.2795 38.2569 56.0524L52.6341 32.099C52.8522 32.0464 52.9734 32.0169 53.1915 31.9644L53.3632 32.0758C53.4136 32.3029 53.4419 32.4291 53.4924 32.6562L39.1152 56.6097Z" fill="white"/>
</svg>
